<?xml version="1.0" standalone="no"?>
<!DOCTYPE svg PUBLIC "-//W3C//DTD SVG 20010904//EN"
 "http://www.w3.org/TR/2001/REC-SVG-20010904/DTD/svg10.dtd">
<svg version="1.0" xmlns="http://www.w3.org/2000/svg"
 width="2304.000000pt" height="3456.000000pt" viewBox="0 0 2304.000000 3456.000000"
 preserveAspectRatio="xMidYMid meet">

<g transform="translate(0.000000,3456.000000) scale(0.100000,-0.100000)"
fill="#000000" stroke="none">
<path d="M0 17280 l0 -17280 11520 0 11520 0 0 17280 0 17280 -11520 0 -11520
0 0 -17280z m11180 11700 c-11 -7 -7 -10 18 -10 20 0 32 5 32 14 0 9 8 12 25
8 14 -2 25 -7 25 -11 0 -3 56 -5 125 -4 103 2 127 0 131 -12 6 -15 26 -22 22
-7 -2 4 2 7 7 7 6 0 9 -4 7 -9 -2 -5 21 -6 52 -3 42 4 54 3 50 -7 -3 -8 3 -17
13 -20 10 -4 19 -2 21 3 5 15 35 14 51 -1 11 -10 14 -10 18 0 3 6 11 12 19 12
8 0 11 -6 7 -17 -5 -12 -2 -15 10 -10 9 3 17 3 17 -1 0 -4 12 -9 26 -10 15 -1
33 -7 40 -13 10 -9 14 -9 14 0 0 16 60 14 66 -3 3 -7 14 -11 27 -9 14 3 30 -3
41 -16 18 -20 47 -29 45 -13 -4 21 3 22 29 4 15 -10 33 -17 40 -15 6 3 12 0
12 -6 0 -15 30 -14 30 2 1 8 5 6 13 -4 8 -11 22 -15 45 -11 31 4 46 -11 20
-21 -7 -2 9 -3 36 -2 32 2 54 -2 63 -11 7 -7 20 -11 29 -7 8 3 21 -3 29 -13
13 -18 14 -18 15 -1 0 22 34 23 84 2 25 -11 36 -12 36 -4 0 7 8 4 20 -6 11
-10 20 -25 20 -33 0 -12 3 -12 15 -2 13 11 19 8 38 -14 26 -29 39 -34 30 -10
-10 28 42 -11 55 -41 6 -14 16 -25 22 -25 5 0 10 -7 10 -15 0 -8 5 -15 10 -15
6 0 10 7 10 17 0 15 1 15 18 0 10 -10 24 -17 30 -17 7 0 11 -6 10 -12 -2 -7 4
-12 12 -11 9 2 29 -9 46 -25 17 -15 42 -33 56 -41 15 -7 29 -24 32 -36 3 -13
16 -25 31 -29 14 -4 25 -10 25 -15 0 -5 18 -28 40 -50 22 -22 40 -45 40 -51 0
-5 9 -10 20 -10 12 0 25 -10 32 -25 6 -14 19 -25 28 -25 10 0 23 -15 33 -40 9
-23 22 -40 31 -40 9 0 16 -6 16 -14 0 -8 9 -18 20 -21 11 -3 20 -11 20 -16 0
-19 3 -24 21 -37 11 -7 19 -19 19 -27 0 -14 86 -105 100 -105 4 0 20 -25 35
-55 14 -30 32 -61 39 -68 6 -6 20 -29 29 -49 10 -21 22 -38 27 -38 6 0 10 -8
10 -17 0 -9 9 -26 19 -37 23 -25 61 -96 61 -113 0 -7 6 -12 12 -11 7 2 14 -7
16 -19 2 -12 10 -27 18 -33 8 -7 14 -19 14 -27 0 -22 30 -76 56 -100 13 -12
24 -29 24 -38 0 -8 7 -15 15 -15 9 0 15 -9 15 -25 0 -14 5 -25 10 -25 6 0 10
-13 10 -30 0 -21 5 -30 16 -30 10 0 14 -6 10 -15 -3 -9 0 -15 8 -15 18 0 36
-22 41 -50 2 -13 11 -30 19 -39 8 -9 15 -20 16 -26 3 -32 14 -54 26 -59 14 -5
50 -73 46 -87 -1 -4 19 -26 43 -50 37 -37 45 -50 45 -81 0 -21 5 -38 10 -38 6
0 10 -6 10 -14 0 -8 9 -21 19 -28 11 -8 23 -26 26 -41 4 -15 11 -30 16 -33 5
-3 9 -14 9 -25 0 -11 7 -22 15 -25 8 -4 15 -16 15 -28 0 -13 18 -48 40 -80 22
-31 40 -61 40 -65 0 -5 7 -14 15 -21 8 -7 17 -27 21 -46 3 -19 15 -51 25 -71
11 -21 19 -50 19 -65 0 -15 4 -28 9 -28 11 0 36 -76 49 -150 6 -30 15 -68 21
-83 16 -40 24 -117 12 -117 -17 0 -21 -32 -5 -48 20 -20 1 -30 -21 -12 -12 10
-15 10 -15 0 0 -16 -45 -5 -81 21 -15 10 -34 19 -42 19 -9 0 -29 17 -46 37
-21 26 -34 34 -41 27 -14 -14 -2 -44 16 -44 8 0 14 -5 14 -10 0 -6 11 -16 25
-22 14 -6 25 -15 25 -20 0 -11 -38 8 -65 32 -32 29 -190 110 -214 110 -35 0
-24 -19 19 -30 21 -6 42 -15 46 -21 3 -6 27 -19 52 -30 69 -30 44 -33 -39 -5
-70 24 -94 26 -73 7 5 -4 42 -21 82 -36 70 -27 98 -45 70 -45 -20 0 -109 26
-150 44 -21 9 -38 12 -38 7 0 -5 16 -15 35 -21 35 -12 48 -30 20 -30 -18 0
-65 20 -85 36 -8 7 -42 15 -75 18 -33 3 -70 8 -82 11 -12 4 -30 2 -40 -3 -20
-12 -21 -12 107 -31 41 -7 79 -16 84 -21 6 -6 20 -10 33 -10 13 0 23 -4 23
-10 0 -5 -18 -10 -40 -10 -22 0 -40 -4 -40 -8 0 -5 -28 -13 -62 -18 -54 -9
-66 -8 -93 7 -22 13 -45 17 -82 14 -29 -2 -55 0 -58 5 -3 4 -23 11 -45 15 -25
4 -40 12 -40 21 0 12 10 13 52 8 60 -8 60 10 0 25 -91 23 -105 24 -99 7 8 -21
-46 -22 -145 0 -49 11 -118 16 -208 15 -190 -2 -177 0 -177 -27 0 -20 3 -23
21 -18 11 4 26 10 31 14 14 11 106 15 128 6 10 -5 23 -3 31 3 7 6 21 9 30 5
29 -11 17 -32 -21 -38 -21 -4 -62 -16 -91 -28 -55 -22 -79 -18 -46 7 10 8 14
15 7 15 -6 0 -15 -4 -18 -10 -3 -5 -20 -16 -38 -25 -18 -8 -46 -29 -64 -45
-18 -17 -37 -30 -42 -30 -6 0 -10 -3 -9 -7 4 -16 -23 -52 -43 -58 -23 -8 -42
-47 -27 -56 6 -4 -4 -13 -21 -22 -28 -14 -46 -7 -21 8 10 6 50 87 50 102 0 5
17 25 38 44 20 20 48 47 61 62 22 24 22 25 3 20 -11 -2 -33 -18 -48 -34 -34
-35 -61 -40 -43 -8 6 11 35 32 65 46 31 14 53 27 50 30 -9 10 -67 -9 -84 -27
-9 -10 -38 -29 -64 -43 -49 -26 -66 -38 -103 -75 l-23 -22 -6 24 c-3 13 -3 32
0 40 11 29 -4 16 -35 -28 -24 -37 -27 -45 -14 -48 13 -2 10 -10 -13 -37 -24
-29 -28 -43 -29 -95 0 -33 -4 -67 -8 -73 -11 -18 -27 -16 -27 2 0 8 5 15 10
15 6 0 10 28 10 63 0 35 4 67 9 72 5 6 16 35 26 65 10 30 29 67 43 82 14 15
22 31 19 35 -10 9 -76 -68 -77 -90 0 -10 -11 -28 -24 -40 -20 -19 -24 -32 -26
-107 -4 -122 -4 -120 -12 -120 -8 0 -12 17 -8 35 9 43 10 65 1 65 -6 0 -11 18
-11 40 0 48 -15 53 -24 8 -18 -89 -22 -143 -12 -150 11 -8 1 -12 -18 -9 -5 1
-6 -7 -4 -17 6 -20 -16 -46 -39 -48 -30 -2 -34 -5 -28 -14 4 -6 11 -8 16 -5 5
4 9 2 9 -4 0 -19 -22 -23 -38 -8 -13 13 -13 19 -2 31 11 14 9 16 -15 16 -22 0
-25 -3 -16 -14 7 -9 8 -17 2 -20 -5 -3 -11 0 -14 6 -2 7 -8 10 -12 6 -4 -4 -2
-14 5 -23 10 -12 10 -15 -4 -15 -9 0 -16 8 -16 20 0 18 -3 19 -20 10 -15 -8
-19 -17 -15 -31 4 -13 2 -19 -9 -19 -9 0 -16 -5 -16 -11 0 -6 -9 -9 -19 -6
-14 3 -18 1 -14 -9 3 -9 -1 -14 -12 -14 -9 0 -13 -5 -10 -10 4 -6 11 -8 16 -5
5 4 9 1 9 -4 0 -6 -4 -11 -10 -11 -5 0 -10 -9 -10 -20 0 -11 -6 -20 -14 -20
-8 0 -16 -7 -20 -15 -3 -8 -13 -15 -21 -15 -9 0 -13 -4 -10 -10 4 -6 -4 -9
-17 -7 -14 1 -22 -3 -21 -10 2 -7 -3 -12 -9 -10 -7 1 -14 -9 -16 -23 -2 -14
-9 -31 -15 -39 -10 -12 -9 -14 5 -8 11 4 17 2 15 -6 -3 -16 -38 -48 -47 -42
-7 4 -6 -40 2 -65 3 -8 10 -30 16 -49 6 -19 9 -38 5 -44 -4 -6 2 -8 16 -4 16
4 20 2 13 -6 -14 -17 -20 -96 -7 -94 5 1 9 -3 8 -10 -2 -6 8 -20 22 -31 18
-15 23 -26 20 -50 -3 -22 0 -30 9 -26 7 3 23 0 37 -5 13 -5 18 -10 12 -10 -18
-1 -16 -21 1 -21 8 0 17 -6 20 -12 5 -10 7 -10 12 0 3 6 12 12 20 12 8 0 14 6
15 13 0 6 5 2 11 -10 6 -13 20 -23 32 -24 56 -3 73 4 112 47 22 24 43 42 46
38 10 -9 -3 -34 -17 -34 -19 0 -30 -21 -15 -30 9 -5 5 -19 -16 -51 -23 -37
-53 -123 -54 -153 0 -5 7 -3 15 4 9 7 15 8 15 2 0 -5 12 -17 26 -27 33 -21
214 -31 226 -12 6 9 12 9 28 0 11 -7 25 -13 32 -13 25 0 88 21 88 29 0 5 -17
16 -37 26 -21 9 -56 26 -79 36 -50 24 -53 24 -47 -1 3 -12 14 -20 27 -21 20
-1 20 -2 1 -6 -11 -3 -25 -9 -31 -14 -6 -5 -14 -6 -17 -2 -11 10 -8 51 3 58 6
3 10 15 10 26 0 19 1 19 16 5 23 -24 36 -9 32 35 -3 35 -1 39 19 39 16 0 21 4
17 15 -9 22 15 73 36 80 9 3 22 16 28 30 7 16 17 23 27 19 11 -5 15 1 15 21 0
20 4 26 15 21 9 -3 19 3 25 14 9 16 64 40 93 40 4 0 7 -35 6 -77 -2 -86 6
-138 27 -168 8 -11 14 -26 14 -35 1 -31 85 -125 122 -137 33 -11 128 -25 153
-23 171 13 257 23 287 31 35 9 88 53 88 72 0 5 8 21 19 35 39 57 54 129 48
234 -4 62 -3 98 4 98 5 0 12 -7 15 -15 4 -8 13 -15 22 -15 26 0 122 -72 122
-91 0 -10 7 -25 16 -33 20 -21 28 -65 13 -82 -6 -7 -9 -19 -6 -26 2 -7 -7 -26
-22 -42 l-26 -28 35 19 c65 36 74 37 48 3 -13 -16 -31 -32 -40 -35 -30 -10
-22 -33 10 -28 25 4 25 3 10 -10 -25 -20 -22 -25 7 -19 15 3 25 0 25 -8 0 -6
10 -20 22 -30 20 -15 21 -21 10 -44 -12 -27 -4 -34 16 -14 9 9 12 6 12 -15 0
-17 5 -27 15 -27 8 0 15 -6 15 -12 0 -8 3 -9 8 -3 12 17 52 17 52 0 0 -8 5
-15 11 -15 5 0 8 4 4 9 -7 13 11 23 49 28 16 1 34 10 39 18 4 8 17 15 27 15
13 0 20 7 20 20 0 13 7 20 20 20 11 0 20 4 20 9 0 5 14 12 30 16 17 4 28 10
25 15 -3 4 4 6 15 3 14 -4 26 1 35 13 11 15 16 16 26 7 9 -10 16 -10 26 -1 8
6 13 7 12 2 -4 -25 4 -34 30 -34 17 0 33 5 36 10 4 6 15 8 25 5 11 -4 20 1 25
12 6 17 7 17 19 0 12 -15 15 -15 25 -3 9 11 19 12 37 6 15 -6 24 -6 24 0 0 6
5 10 10 10 6 0 21 12 34 27 l23 27 19 -22 c10 -12 28 -22 39 -22 32 0 46 -14
51 -51 7 -55 14 -79 33 -123 29 -65 46 -110 44 -118 -4 -11 36 -130 63 -187
14 -29 31 -76 39 -105 8 -28 17 -62 21 -76 4 -14 10 -29 14 -35 11 -14 32 -94
35 -130 4 -62 29 -184 65 -325 5 -20 12 -91 15 -158 3 -68 9 -140 13 -160 5
-20 5 -48 2 -62 -4 -14 -5 -58 -3 -97 3 -65 2 -73 -14 -74 -11 0 -13 -3 -5 -6
16 -6 15 -33 -3 -76 -16 -40 -18 -66 -11 -151 3 -44 1 -62 -10 -74 -9 -9 -13
-24 -10 -37 4 -14 0 -28 -9 -35 -9 -8 -12 -17 -7 -24 15 -19 20 -52 11 -69 -6
-10 -5 -18 1 -22 13 -8 13 -75 0 -95 -5 -8 -12 -11 -17 -7 -4 4 -2 16 4 26 9
14 7 20 -11 31 -19 12 -20 12 -7 -3 11 -14 11 -20 1 -32 -10 -12 -10 -22 -3
-38 13 -28 5 -80 -10 -70 -6 4 -8 0 -4 -10 8 -22 -13 -78 -40 -104 -23 -22
-31 -39 -14 -29 5 3 11 -1 15 -9 3 -8 1 -17 -4 -20 -5 -3 -7 -12 -3 -20 3 -8
1 -15 -5 -15 -6 0 -12 5 -14 11 -2 7 -9 5 -17 -5 -12 -14 -12 -16 3 -10 20 8
21 -5 2 -31 -7 -11 -16 -31 -20 -45 -5 -16 -4 -20 2 -12 7 10 11 5 17 -20 4
-18 7 -39 6 -45 -3 -24 27 -13 33 12 4 14 11 25 17 25 6 0 9 -6 6 -12 -16 -43
-15 -57 3 -93 l20 -39 -28 -30 c-21 -23 -23 -28 -8 -22 12 4 23 2 28 -6 10
-17 10 -31 -1 -24 -7 5 -20 -48 -23 -94 0 -8 -5 -21 -11 -27 -6 -9 -6 -13 2
-13 6 0 11 -11 11 -25 0 -14 -4 -25 -9 -25 -5 0 -11 -12 -14 -27 -29 -169 -40
-220 -49 -231 -6 -6 -12 -49 -13 -95 -3 -75 -21 -162 -44 -212 -5 -11 -15 -40
-22 -65 -7 -25 -19 -52 -26 -60 -41 -45 -53 -65 -53 -86 0 -28 -17 -69 -46
-109 -26 -36 -64 -114 -64 -131 0 -6 -13 -26 -30 -44 -16 -18 -30 -38 -30 -45
0 -7 -17 -31 -37 -53 -57 -62 -83 -101 -83 -127 0 -8 -6 -15 -13 -15 -8 0 -19
-10 -25 -22 -7 -13 -22 -35 -34 -50 -12 -15 -18 -31 -14 -35 4 -4 11 -1 15 6
6 10 10 10 16 1 7 -11 -32 -47 -47 -43 -4 2 -9 -6 -13 -16 -3 -10 -20 -26 -39
-36 -24 -13 -32 -23 -28 -37 3 -13 -2 -21 -16 -25 -11 -2 -23 -15 -26 -28 -4
-17 -11 -22 -26 -18 -13 4 -20 0 -20 -9 0 -8 -11 -25 -25 -38 -14 -13 -25 -29
-25 -36 0 -7 -16 -22 -35 -34 -19 -12 -35 -26 -35 -31 0 -4 -6 -6 -14 -3 -10
4 -16 -5 -21 -25 -4 -21 -17 -37 -36 -46 -25 -13 -28 -20 -23 -42 5 -17 3 -24
-4 -19 -6 3 -13 2 -17 -4 -3 -5 -15 -10 -27 -10 -14 0 -18 -5 -14 -15 5 -14
-9 -20 -41 -16 -6 1 -17 -12 -25 -29 -7 -17 -21 -30 -30 -30 -10 0 -18 -4 -18
-9 0 -18 -63 -72 -91 -78 -16 -3 -29 -9 -29 -14 0 -5 -7 -9 -16 -9 -10 0 -14
-6 -11 -14 6 -15 -20 -29 -44 -24 -8 2 -15 -7 -17 -19 -2 -13 -8 -23 -13 -23
-6 0 -7 5 -4 10 3 6 1 10 -4 10 -6 0 -11 -7 -11 -15 0 -8 -7 -15 -15 -15 -9 0
-15 -6 -13 -12 4 -22 -23 -60 -38 -54 -18 7 -58 -34 -80 -80 -13 -26 -21 -32
-47 -32 -32 0 -107 -37 -107 -52 0 -5 -17 -19 -37 -31 -21 -13 -42 -29 -46
-36 -4 -7 -12 -13 -18 -13 -9 0 -32 -19 -123 -102 -23 -21 -45 -38 -50 -38 -5
0 -37 -26 -72 -57 -34 -32 -85 -78 -114 -103 -28 -25 -58 -51 -65 -57 -7 -7
-20 -13 -27 -13 -8 0 -19 -5 -26 -12 -7 -7 -12 -10 -12 -7 0 3 -20 -14 -45
-38 -25 -24 -54 -43 -65 -43 -10 0 -22 -5 -25 -10 -5 -8 -11 -8 -19 -1 -9 8
-22 4 -46 -14 -19 -14 -37 -31 -42 -37 -6 -10 -10 -10 -16 -1 -8 12 -62 13
-62 0 0 -4 -6 -7 -12 -6 -22 4 -78 -12 -78 -22 0 -6 -9 -7 -20 -4 -11 3 -20 2
-20 -4 0 -5 -13 -12 -29 -16 -16 -3 -46 -15 -67 -26 -21 -10 -44 -19 -50 -19
-7 0 -14 -4 -16 -10 -1 -5 -21 -12 -43 -14 -58 -5 -105 -17 -105 -27 0 -4 -26
-8 -57 -8 -106 0 -192 -8 -206 -19 -7 -6 -27 -9 -44 -6 -17 3 -34 0 -38 -6 -3
-5 -17 -10 -30 -10 -13 0 -27 -5 -31 -11 -4 -8 -30 -9 -83 -3 -42 4 -108 8
-146 9 -39 0 -77 5 -84 10 -8 4 -36 7 -63 6 -27 -1 -48 3 -48 9 0 6 -17 9 -40
7 -22 -2 -40 1 -40 6 0 5 -13 6 -29 2 -19 -4 -33 -1 -44 9 -8 8 -32 17 -53 20
-22 2 -51 9 -66 15 -14 5 -35 9 -45 9 -17 -2 -35 5 -141 53 -48 22 -56 23 -47
9 4 -6 -7 -10 -24 -10 -17 0 -31 5 -31 11 0 5 -5 7 -10 4 -6 -3 -13 1 -16 10
-4 10 -13 13 -25 10 -11 -4 -19 -2 -19 4 0 6 -8 11 -17 11 -9 0 -25 8 -36 18
-15 12 -21 14 -24 5 -6 -17 -33 -16 -33 1 0 8 -19 19 -47 26 -26 6 -50 15 -53
18 -9 12 -89 52 -103 52 -8 0 -18 7 -21 16 -4 9 -9 14 -12 11 -11 -11 -70 17
-114 55 -38 33 -46 37 -55 24 -10 -12 -16 -10 -42 18 -16 18 -33 40 -36 49 -4
10 -13 14 -22 11 -10 -4 -15 0 -15 10 0 9 -8 16 -18 16 -10 0 -28 9 -40 21
-12 11 -26 17 -31 14 -5 -3 -13 4 -16 16 -13 39 -69 89 -103 92 -22 1 -32 7
-32 18 0 9 -9 19 -20 22 -11 3 -23 13 -26 24 -11 28 -46 63 -64 63 -9 0 -25 9
-35 20 -10 11 -24 20 -32 20 -14 0 -40 23 -66 61 -14 19 -19 21 -26 10 -7 -11
-13 -8 -27 13 -12 19 -23 26 -37 22 -15 -4 -18 -1 -14 16 4 14 0 22 -13 25
-11 3 -22 14 -25 24 -4 12 -19 22 -36 26 -17 3 -28 11 -26 17 7 19 -29 57 -47
50 -13 -5 -16 1 -16 25 0 21 -5 31 -15 31 -8 0 -24 17 -36 38 -23 38 -70 82
-92 86 -16 2 -48 33 -70 68 -9 14 -26 29 -37 33 -11 3 -20 13 -20 21 0 8 -7
14 -15 14 -8 0 -15 5 -15 11 0 6 -8 8 -19 4 -15 -5 -18 -2 -14 14 3 11 -3 27
-15 39 -11 11 -23 29 -27 41 -3 12 -11 21 -16 21 -5 0 -9 7 -9 15 0 9 -7 18
-15 21 -8 4 -15 12 -15 20 0 8 -6 14 -13 14 -17 0 -47 36 -47 57 0 13 -3 14
-12 5 -18 -18 -28 -15 -28 8 0 11 -5 20 -10 20 -6 0 -9 5 -8 12 2 7 -3 13 -9
14 -7 1 -16 2 -20 3 -4 0 2 8 13 17 10 8 14 13 8 10 -7 -3 -15 5 -18 18 -3 14
-15 28 -26 31 -11 3 -20 15 -20 25 0 11 -8 24 -17 29 -11 6 -13 11 -5 11 7 0
10 5 7 11 -4 6 -13 8 -21 5 -17 -7 -19 10 -1 18 8 4 7 5 -3 5 -41 -3 -50 2
-50 26 0 14 -11 37 -25 51 -14 14 -23 29 -20 35 4 5 -5 14 -18 20 -18 8 -23
17 -19 33 3 11 1 18 -3 13 -5 -4 -17 0 -27 10 -10 9 -18 13 -18 8 0 -4 -7 -2
-15 5 -8 7 -15 22 -15 34 -1 32 -24 58 -46 49 -15 -5 -17 -4 -8 8 22 28 23 58
3 64 -10 4 -19 12 -19 18 0 7 -9 20 -20 30 -11 9 -17 23 -14 30 3 9 -3 16 -15
20 -21 5 -30 27 -11 27 12 0 2 29 -17 52 -8 9 -12 22 -8 28 8 13 -17 9 -28 -5
-4 -5 -5 3 -1 18 5 23 3 29 -15 34 -22 6 -27 18 -11 28 12 7 1 35 -14 35 -6 0
-16 10 -21 23 -6 12 -15 21 -21 20 -7 -1 -8 17 -3 50 6 52 -2 87 -22 87 -6 0
-8 4 -5 8 3 5 -4 16 -15 25 -10 9 -19 28 -19 42 0 14 -7 28 -15 31 -9 4 -15
19 -15 35 0 16 -4 29 -9 29 -6 0 -6 12 -2 28 4 15 6 33 4 40 -3 6 1 12 9 12 8
0 7 4 -4 11 -10 5 -18 17 -18 25 0 8 -4 12 -10 9 -5 -3 -10 3 -10 13 0 11 -7
25 -15 32 -9 7 -14 19 -11 27 3 7 2 13 -3 13 -5 0 -11 26 -15 57 -4 31 -11 62
-16 68 -5 6 -10 39 -12 72 -1 36 -6 59 -12 56 -5 -4 -7 1 -3 12 4 9 2 24 -4
31 -7 8 -12 22 -13 32 -1 9 -8 43 -16 75 -11 47 -11 63 -1 78 9 16 9 23 -3 35
-19 18 -27 64 -23 124 2 25 0 59 -3 77 -4 17 -4 49 -1 70 4 21 4 52 -1 68 -5
17 -11 52 -15 79 -3 28 -11 59 -18 70 -10 16 -12 37 -6 86 12 95 4 223 -15
233 -10 6 -12 13 -6 20 15 19 23 93 28 242 5 191 20 346 40 408 4 12 8 46 10
76 6 84 15 145 23 156 4 5 14 33 21 60 7 28 21 69 31 92 10 24 19 56 19 72 0
17 12 61 26 98 14 37 32 84 39 103 21 55 95 199 105 205 6 4 10 18 10 32 0 17
7 27 20 30 11 3 23 17 27 32 3 14 30 50 59 79 48 47 57 52 98 52 25 0 48 5 51
10 3 6 19 10 35 10 16 0 32 5 35 10 3 6 13 10 21 10 9 0 12 -5 8 -12 -5 -8 9
-10 52 -5 32 3 67 8 77 12 11 5 17 2 17 -7 0 -15 20 -33 93 -86 29 -20 54 -40
55 -44 2 -5 8 -5 14 -2 5 4 20 1 33 -6 19 -10 27 -10 42 1 52 37 81 68 80 84
-1 11 10 24 30 34 25 13 31 21 26 39 -4 18 -2 21 13 15 11 -3 22 -11 25 -16
10 -14 51 3 45 18 -3 8 3 16 12 19 10 4 17 16 17 31 0 20 -4 24 -19 19 -15 -5
-18 -3 -13 10 4 9 3 16 -1 16 -4 0 -13 10 -21 21 -12 20 -11 21 13 17 28 -6
36 6 10 16 -12 4 -14 13 -10 32 4 15 3 23 -3 20 -16 -10 -18 27 -4 57 8 15 12
35 11 44 -2 11 18 28 62 54 36 20 69 35 73 32 4 -3 13 0 20 5 9 8 12 -10 13
-76 1 -78 4 -95 38 -169 l38 -81 64 -16 c61 -15 273 -24 292 -12 5 3 54 8 110
11 68 4 114 13 140 25 42 20 49 34 92 178 17 58 26 72 42 72 14 0 18 -5 13
-19 -4 -13 0 -20 15 -24 15 -4 20 0 20 15 0 10 5 16 10 13 6 -3 10 -15 10 -26
0 -10 7 -19 15 -19 8 0 15 -6 15 -13 0 -18 28 -75 41 -82 11 -7 0 -57 -14 -66
-5 -4 -31 -10 -58 -13 -48 -7 -63 -19 -35 -29 8 -3 23 -3 35 0 11 3 35 0 53
-6 21 -7 34 -8 36 -2 2 6 12 7 27 1 12 -5 25 -7 27 -4 3 2 43 -4 90 -14 86
-19 158 -18 158 0 0 6 9 8 20 5 13 -3 20 0 20 9 0 19 -36 85 -52 96 -10 6 -10
8 0 8 16 0 15 29 -2 63 -13 24 -13 27 2 27 10 0 27 -7 40 -15 30 -22 107 -22
142 0 5 3 10 1 10 -4 0 -19 45 -12 58 9 10 16 16 18 32 10 15 -8 20 -6 26 13
4 12 6 39 5 60 -1 25 2 36 9 32 6 -3 10 3 10 14 0 12 4 21 8 21 10 0 7 84 -3
100 -3 5 -1 10 6 10 10 0 10 3 2 11 -6 6 -9 18 -6 25 3 8 1 14 -4 14 -6 0 -25
22 -44 49 -27 40 -41 52 -76 60 -27 7 -43 17 -43 27 0 8 -4 13 -9 9 -9 -5 -51
45 -51 60 0 4 8 14 18 22 15 12 14 13 -13 7 -39 -9 -47 -13 -40 -25 14 -21
-14 -7 -38 21 -28 31 -35 46 -15 34 7 -4 8 -3 4 4 -5 8 -13 8 -32 0 -20 -10
-27 -8 -39 8 -13 16 -14 16 -9 2 8 -24 -13 -23 -26 1 -14 26 -13 31 5 25 8 -4
15 -1 15 5 0 7 -7 14 -15 17 -8 4 -12 11 -9 16 4 6 0 14 -7 19 -10 6 -8 9 9 9
13 0 22 6 22 15 0 8 5 15 11 15 5 0 7 5 4 10 -9 15 -36 12 -57 -7 -14 -13 -21
-14 -31 -4 -9 9 -7 13 11 18 25 6 27 38 3 38 -8 0 -19 14 -24 30 -12 38 -27
56 -39 49 -5 -3 0 -16 12 -29 12 -13 19 -28 16 -33 -3 -6 1 -18 10 -27 24 -24
13 -27 -28 -7 -47 23 -94 87 -78 107 9 10 7 20 -6 40 -9 14 -14 28 -11 31 2 3
14 -10 26 -29 19 -32 51 -56 51 -40 0 8 -46 78 -78 118 -36 44 -121 115 -139
115 -10 0 -6 -8 13 -22 56 -44 65 -53 83 -83 22 -36 35 -95 21 -95 -6 0 -10 6
-10 13 0 8 -9 22 -20 32 -11 10 -20 23 -20 30 0 11 -66 75 -78 75 -3 0 9 -16
28 -35 18 -19 31 -38 27 -41 -3 -3 -16 4 -29 18 -60 62 -134 101 -148 78 -4
-7 -15 -10 -24 -7 -23 9 -20 26 4 20 11 -3 20 0 20 6 0 6 -5 11 -11 11 -5 0
-7 5 -4 10 8 13 50 2 92 -23 38 -22 45 -6 9 19 -14 8 -23 21 -20 27 2 7 -7 17
-21 24 -14 6 -25 7 -25 2 0 -5 5 -9 10 -9 6 0 10 -5 10 -11 0 -11 -32 -9 -109
7 -23 5 -36 3 -42 -7 -6 -11 -14 -11 -42 -1 -37 13 -67 15 -91 6 -23 -9 -20
-24 4 -24 11 0 20 -4 20 -9 0 -5 -25 -8 -55 -7 -60 1 -73 13 -24 23 44 9 16
23 -47 23 -27 0 -55 5 -60 10 -8 8 -55 5 -155 -10 -79 -11 -157 -21 -174 -21
-37 -2 -85 -18 -85 -30 0 -12 -75 -49 -100 -49 -11 0 -37 -7 -56 -15 -30 -12
-38 -13 -49 -1 -12 12 -11 16 4 30 10 9 28 16 42 16 13 1 38 7 54 15 l30 15
-45 -5 -45 -6 30 17 c18 11 25 19 17 22 -7 2 -31 -8 -52 -22 -22 -14 -44 -26
-49 -26 -6 0 -14 -6 -18 -12 -4 -7 -17 -13 -28 -14 -11 -1 -42 -4 -70 -8 l-50
-6 53 19 c28 10 63 30 76 43 12 14 34 29 47 33 26 8 69 43 69 57 0 14 -108
-52 -144 -88 -18 -17 -62 -34 -230 -85 -41 -13 -42 -6 -5 25 20 17 38 25 50
21 14 -5 19 -1 19 13 0 11 15 30 35 43 19 13 35 27 35 31 0 9 48 30 120 54 30
10 59 22 65 26 15 13 -92 -2 -131 -18 -34 -14 -35 -14 -24 6 6 11 25 27 43 37
46 23 15 29 -36 6 -68 -31 -106 -42 -113 -32 -3 5 -2 9 3 9 4 0 24 14 43 31
25 22 28 27 9 16 -14 -9 -43 -22 -63 -31 -36 -15 -37 -15 -31 4 4 13 0 27 -11
37 -13 13 -19 14 -22 5 -5 -16 -22 -16 -22 1 0 7 14 21 30 30 17 10 30 25 30
34 0 9 6 13 15 9 9 -3 15 0 15 10 0 8 7 29 16 45 11 23 12 34 4 44 -8 10 -7
13 7 11 13 -1 17 7 19 32 0 18 9 40 18 50 9 10 16 23 16 28 0 5 12 23 28 39
15 16 26 31 25 32 -11 12 1 45 20 54 15 7 28 26 36 54 7 24 19 46 28 49 8 3
11 10 8 16 -3 6 1 17 9 26 9 9 14 20 10 25 -3 5 2 12 10 15 9 3 16 17 16 31 0
13 12 40 26 58 14 19 23 39 19 45 -3 5 4 24 16 41 15 22 18 34 11 41 -8 8 -8
17 -1 30 5 10 7 23 4 28 -4 6 -1 9 7 8 9 -2 12 6 10 25 -2 17 1 26 7 23 5 -4
12 -2 16 4 3 5 0 10 -7 10 -9 0 -9 3 -2 8 13 8 28 43 25 56 -1 5 4 32 10 60 7
28 13 53 14 56 0 3 10 21 22 40 12 20 22 45 22 55 1 62 15 126 27 121 14 -5
30 46 20 63 -4 5 0 15 7 23 14 13 24 45 34 107 3 18 13 41 23 51 10 10 21 37
25 61 9 55 51 149 66 149 6 0 9 9 6 19 -2 11 3 28 12 38 9 11 25 35 36 55 18
33 159 225 175 238 3 3 32 46 64 95 32 50 79 122 105 160 25 39 52 81 59 95 7
14 33 47 57 74 25 27 45 52 45 57 0 5 6 9 13 9 6 0 35 20 62 45 28 25 55 45
61 45 6 0 16 11 22 24 6 15 23 27 41 31 17 4 31 10 31 14 0 4 20 15 44 25 25
10 54 29 66 41 14 15 29 21 42 17 13 -3 24 1 30 12 5 9 18 16 28 16 11 0 20 4
20 8 0 5 19 14 43 21 23 7 76 25 117 41 41 16 88 32 103 36 21 5 25 9 16 15
-7 4 -10 11 -6 16 4 4 17 2 27 -5 25 -15 41 -15 38 0 -4 15 48 27 147 33 97 7
117 9 130 16 6 3 37 5 70 4 33 -2 70 1 83 6 15 6 31 5 45 -2 18 -10 23 -8 36
10 10 16 17 19 25 11 8 -8 7 -13 -4 -20z m435 -10 c3 -5 1 -10 -4 -10 -6 0
-11 5 -11 10 0 6 2 10 4 10 3 0 8 -4 11 -10z m-1905 -609 c0 -6 -4 -13 -10
-16 -5 -3 -10 1 -10 9 0 9 5 16 10 16 6 0 10 -4 10 -9z m-59 -89 c-17 -27 -31
-52 -31 -56 0 -13 -114 -181 -159 -233 -48 -56 -76 -72 -42 -24 12 16 21 34
21 40 0 6 9 15 20 21 11 6 20 17 20 25 0 8 5 15 11 15 5 0 16 15 24 34 8 19
19 38 25 41 6 4 7 11 4 17 -4 6 -3 8 2 5 6 -3 25 20 43 51 44 74 82 125 88
118 3 -3 -9 -27 -26 -54z m-271 -392 c0 -5 -4 -10 -10 -10 -5 0 -10 5 -10 10
0 6 5 10 10 10 6 0 10 -4 10 -10z m-841 -2056 c-35 -19 -45 -17 -25 5 10 11
25 17 33 14 12 -5 10 -9 -8 -19z m4851 6 c12 -7 12 -12 2 -22 -19 -19 -14 -30
8 -18 30 16 202 9 208 -9 3 -10 -2 -13 -21 -9 -14 3 -47 2 -72 -2 -25 -4 -48
-4 -50 0 -3 4 -24 4 -47 -1 -24 -4 -54 -8 -68 -8 -23 0 -24 1 -7 13 9 7 17 21
17 31 0 13 -5 16 -25 11 -19 -5 -23 -3 -19 9 7 17 51 20 74 5z m927 -46 c-7
-7 -37 7 -37 17 0 6 9 5 21 -1 11 -7 19 -14 16 -16z m-5775 -15 c-19 -17 -37
-27 -40 -24 -8 8 44 55 61 55 7 0 -3 -14 -21 -31z m93 1 c-3 -5 -11 -10 -16
-10 -6 0 -7 5 -4 10 3 6 11 10 16 10 6 0 7 -4 4 -10z m35 -20 c-37 -28 -50
-24 -15 4 17 13 32 22 35 19 3 -2 -6 -13 -20 -23z m4600 20 c-20 -13 -53 -13
-45 0 3 6 18 10 33 10 21 0 24 -2 12 -10z m854 -6 c9 -3 16 -10 16 -15 0 -14
-26 -10 -40 6 -13 16 -3 20 24 9z m233 0 c-3 -3 -12 -4 -19 -1 -8 3 -5 6 6 6
11 1 17 -2 13 -5z m118 -12 c-3 -3 -11 0 -18 7 -9 10 -8 11 6 5 10 -3 15 -9
12 -12z m-428 -8 c-3 -3 -12 -4 -19 -1 -8 3 -5 6 6 6 11 1 17 -2 13 -5z m363
-4 c8 -5 11 -10 5 -10 -5 0 -17 5 -25 10 -8 5 -10 10 -5 10 6 0 17 -5 25 -10z
m-714 -11 c53 1 84 -2 84 -8 0 -7 -40 -11 -110 -11 -61 0 -110 4 -110 9 0 11
31 20 44 13 4 -3 46 -4 92 -3z m388 -8 c55 -2 132 -28 96 -32 -8 -1 -19 -1
-24 0 -5 1 -32 -3 -60 -8 -117 -24 -311 -30 -356 -12 -23 9 -22 10 15 12 22 1
50 3 62 3 12 1 28 7 34 14 7 6 30 12 51 12 22 0 38 5 38 12 0 7 6 6 18 -4 9
-8 26 -18 36 -22 16 -5 17 -4 7 8 -15 18 -5 41 12 28 7 -4 39 -9 71 -11z m221
-1 c51 -13 82 -30 54 -30 -8 0 -41 7 -72 15 -32 8 -61 14 -65 14 -4 -1 -18 0
-32 1 -24 2 -24 3 5 10 33 8 38 8 110 -10z m-5825 -5 c-7 -9 -15 -13 -19 -10
-3 3 1 10 9 15 21 14 24 12 10 -5z m4400 -3 c0 -11 -9 -27 -19 -36 -10 -9 -18
-25 -16 -34 1 -9 0 -11 -2 -4 -6 17 -23 15 -23 -2 0 -15 -29 -50 -36 -43 -8 7
25 74 52 106 29 35 44 39 44 13z m665 8 c4 -6 -8 -10 -30 -10 -22 0 -34 4 -30
10 3 6 17 10 30 10 13 0 27 -4 30 -10z m-4052 -21 c-12 -11 -63 -18 -183 -24
-127 -6 -99 7 51 25 57 6 106 13 107 15 2 2 11 1 19 -2 8 -3 11 -9 6 -14z
m5022 5 c19 -16 19 -16 -5 -9 -31 9 -50 25 -29 25 7 0 23 -8 34 -16z m-4655
-25 c0 -5 -11 -9 -25 -9 -14 0 -25 6 -25 14 0 9 8 12 25 8 14 -2 25 -8 25 -13z
m3190 6 c-33 -19 -46 -19 -30 0 7 8 22 15 34 15 20 -1 20 -2 -4 -15z m-4441 1
c-2 -2 -15 -9 -29 -15 -24 -11 -24 -11 -6 3 16 13 49 24 35 12z m1108 -12 c-3
-3 -12 -4 -19 -1 -8 3 -5 6 6 6 11 1 17 -2 13 -5z m3368 -13 c-3 -6 -11 -11
-17 -11 -6 0 -6 6 2 15 14 17 26 13 15 -4z m425 9 c11 -7 4 -10 -25 -9 -31 0
-36 2 -20 9 26 11 28 11 45 0z m-4000 -16 c0 -2 -30 -3 -67 -3 -47 1 -59 3
-38 8 29 6 105 3 105 -5z m4070 6 c0 -5 -4 -10 -9 -10 -6 0 -13 5 -16 10 -3 6
1 10 9 10 9 0 16 -4 16 -10z m104 1 c3 -5 -1 -11 -9 -15 -9 -3 -15 0 -15 9 0
16 16 20 24 6z m451 -30 c-6 -5 -37 -11 -70 -14 -33 -3 -75 -8 -92 -12 -39 -7
-43 6 -8 29 28 18 39 21 30 6 -8 -14 20 -12 80 4 49 13 80 6 60 -13z m90 19
c-3 -5 -23 -10 -43 -10 -28 0 -33 3 -22 10 20 13 73 13 65 0z m159 1 c4 -5
-14 -9 -39 -9 -24 1 -42 5 -39 10 7 11 71 10 78 -1z m-5136 -12 c-33 -19 -238
-66 -238 -55 0 18 70 39 185 56 72 10 72 10 53 -1z m602 -20 c8 -5 30 -16 48
-25 17 -9 32 -20 32 -25 0 -14 -9 -11 -43 13 -17 12 -38 23 -46 25 -8 1 -24
11 -35 23 l-21 22 25 -12 c14 -7 32 -17 40 -21z m3192 9 c-6 -6 -15 -8 -19 -4
-4 4 -1 11 7 16 19 12 27 3 12 -12z m1259 2 c5 0 9 -4 9 -10 0 -5 -7 -10 -15
-10 -8 0 -15 -4 -15 -10 0 -5 -15 -10 -34 -10 -33 0 -57 -9 -106 -42 -14 -9
-42 -20 -62 -23 -21 -4 -36 -11 -33 -15 5 -7 -43 -28 -122 -52 -24 -7 -43 -17
-43 -22 0 -4 8 -5 18 -1 9 4 44 15 78 25 34 10 71 23 82 29 25 13 52 14 52 2
0 -5 -15 -16 -32 -25 l-33 -17 30 6 c26 6 28 5 15 -8 -8 -8 -40 -28 -70 -43
-38 -20 -49 -30 -37 -32 10 -2 26 3 35 10 17 15 84 48 97 48 3 0 24 15 47 33
31 25 49 32 84 32 24 0 39 2 34 3 -21 7 3 22 33 21 31 -1 31 -1 7 -9 -14 -4
-19 -8 -12 -9 25 -2 11 -18 -38 -45 -27 -15 -50 -29 -50 -32 0 -12 100 -2 114
11 17 18 30 20 20 4 -5 -8 4 -10 30 -7 40 4 49 -7 14 -17 -23 -6 -36 -11 -93
-35 -46 -19 -12 -23 49 -6 59 17 149 22 110 6 -28 -11 -40 -30 -20 -30 9 0 16
-4 16 -10 0 -10 -18 -15 -94 -25 -63 -8 -88 -23 -76 -46 8 -14 17 -15 52 -8
24 4 47 8 51 9 5 0 5 5 2 10 -3 6 0 10 9 10 8 0 23 3 33 7 17 6 17 5 2 -13
-16 -19 -15 -54 2 -54 17 0 9 -18 -11 -23 -12 -3 -23 1 -29 10 -6 11 -10 12
-15 4 -4 -6 -2 -11 3 -11 23 0 9 -17 -24 -29 -47 -16 -49 -44 -3 -30 45 12 48
11 15 -7 -26 -14 -27 -17 -14 -32 19 -22 11 -41 -22 -53 -22 -9 -24 -12 -11
-22 22 -17 14 -63 -13 -72 -12 -4 -26 -6 -32 -5 -29 6 -45 9 -102 15 -35 4
-61 11 -58 15 8 14 -24 33 -46 27 -18 -5 -70 8 -119 30 -8 4 -33 8 -55 9 -22
1 -80 6 -130 10 -159 13 -394 9 -460 -9 -33 -9 -98 -19 -145 -22 -47 -4 -88
-11 -91 -17 -4 -6 -24 -12 -46 -14 -21 -1 -43 -2 -49 -3 -6 -1 -21 -10 -34
-21 -13 -11 -33 -20 -46 -20 -34 0 -157 -30 -169 -41 -5 -5 -15 -9 -23 -9 -26
0 43 48 88 61 44 12 86 37 45 26 -11 -3 -42 -8 -70 -12 -27 -3 -76 -15 -109
-26 -69 -23 -84 -20 -24 6 24 10 57 23 73 31 104 44 212 74 273 74 17 0 32 4
32 9 0 13 -192 3 -204 -9 -12 -12 -49 -13 -42 -1 8 12 99 41 130 41 14 0 26 5
26 10 0 12 -39 12 -97 1 -31 -6 -48 -5 -60 5 -15 11 -15 14 -3 15 8 1 20 1 27
0 6 -1 14 3 18 9 3 5 2 10 -4 10 -6 0 -8 6 -5 14 3 8 -2 16 -13 19 -10 3 8 5
40 6 40 1 57 5 56 14 -4 32 2 46 16 41 17 -7 48 14 40 27 -7 10 26 28 43 22 6
-3 12 2 12 11 0 9 11 23 25 32 34 22 32 36 -2 18 -31 -16 -63 -19 -63 -5 0 20
29 29 97 29 40 0 77 3 83 7 5 3 13 -1 16 -9 7 -17 44 -22 44 -6 0 6 -9 10 -20
10 -34 0 -22 16 23 29 23 7 49 16 57 21 9 4 31 11 50 15 56 11 23 -10 -42 -29
-32 -9 -58 -21 -58 -26 0 -20 67 -9 125 21 40 20 69 29 86 25 16 -3 34 1 45
10 17 13 16 14 -21 8 -28 -4 -37 -3 -30 4 16 16 135 53 147 46 7 -5 2 -11 -13
-17 l-24 -10 25 -7 c14 -4 42 -1 64 7 47 16 78 17 93 2 8 -8 29 -3 80 19 37
17 78 34 91 37 35 10 25 21 -15 17 -26 -3 -35 -1 -28 6 13 13 75 26 75 15 0
-4 21 -7 48 -5 l47 3 -34 -16 c-18 -8 -40 -15 -47 -15 -8 0 -14 -7 -14 -15 0
-20 0 -20 130 26 63 23 133 46 155 51 22 6 47 14 55 19 8 4 21 6 28 3 8 -2 18
-4 23 -4z m-4585 -16 c27 -9 55 -18 63 -20 8 -2 12 -7 9 -9 -5 -5 -128 34
-128 41 0 6 2 5 56 -12z m3364 -4 c-8 -5 -17 -7 -19 -4 -3 3 1 9 9 14 8 5 17
7 19 4 3 -3 -1 -9 -9 -14z m761 4 c-82 -14 -110 -12 -81 6 8 6 49 9 90 9 l75
-1 -84 -14z m-5038 -9 c-8 -22 -62 -48 -95 -47 -16 0 -28 -3 -28 -6 0 -12 -67
-45 -82 -40 -8 3 -1 11 18 21 17 9 36 23 43 31 8 9 24 16 37 16 14 0 34 5 47
12 12 6 29 15 37 19 23 12 30 10 23 -6z m3949 3 c-5 -7 -12 -22 -14 -33 -2
-12 -6 -16 -10 -9 -7 10 17 54 29 54 3 0 1 -6 -5 -12z m178 -3 c-7 -9 -15 -13
-17 -11 -7 7 7 26 19 26 6 0 6 -6 -2 -15z m510 5 c0 -5 -9 -10 -20 -10 -11 0
-20 5 -20 10 0 6 9 10 20 10 11 0 20 -4 20 -10z m55 0 c3 -5 -3 -10 -15 -10
-12 0 -18 5 -15 10 3 6 10 10 15 10 5 0 12 -4 15 -10z m929 -9 c41 -16 28 -22
-24 -10 -25 6 -52 8 -62 6 -11 -3 -15 0 -11 10 6 16 44 14 97 -6z m-5458 -16
c-10 -8 -23 -12 -29 -8 -11 7 12 23 33 23 12 -1 11 -4 -4 -15z m4165 0 c-42
-19 -50 -19 -25 0 10 8 28 14 39 14 14 0 10 -4 -14 -14z m89 6 c0 -17 -12 -41
-21 -41 -10 0 -12 33 -2 43 9 10 23 9 23 -2z m-520 -11 c0 -5 -4 -10 -10 -10
-5 0 -10 5 -10 10 0 6 5 10 10 10 6 0 10 -4 10 -10z m1000 -2 c-19 -5 -47 -13
-62 -18 -21 -6 -28 -5 -28 5 0 17 21 23 80 23 l45 0 -35 -10z m-5074 -7 c-7
-11 -98 -43 -104 -36 -6 6 77 44 96 45 7 0 11 -4 8 -9z m5608 -12 c-10 -12
-18 -24 -16 -28 1 -3 -5 -6 -15 -6 -29 0 -24 21 9 37 43 22 44 22 22 -3z
m-5097 5 c-3 -3 -12 -4 -19 -1 -8 3 -5 6 6 6 11 1 17 -2 13 -5z m3633 -4 c0
-5 -4 -10 -10 -10 -5 0 -10 5 -10 10 0 6 5 10 10 10 6 0 10 -4 10 -10z m305 0
c-3 -5 -12 -10 -18 -10 -7 0 -6 4 3 10 19 12 23 12 15 0z m-395 -4 c0 -3 -4
-8 -10 -11 -5 -3 -10 -1 -10 4 0 6 5 11 10 11 6 0 10 -2 10 -4z m480 -12 c0
-2 -7 -4 -15 -4 -8 0 -15 4 -15 10 0 5 7 7 15 4 8 -4 15 -8 15 -10z m375 6
c-3 -5 -21 -12 -40 -16 -20 -3 -38 -10 -41 -15 -7 -12 -34 -11 -34 1 0 15 52
39 88 40 19 0 31 -4 27 -10z m219 1 c7 -11 -34 -22 -48 -14 -5 4 -1 10 10 14
26 10 32 10 38 0z m-4774 -16 c-7 -8 -20 -15 -29 -15 -13 1 -13 3 3 15 26 19
42 19 26 0z m3751 -12 c-8 -15 -10 -15 -11 -2 0 17 10 32 18 25 2 -3 -1 -13
-7 -23z m1069 17 c-19 -13 -30 -13 -30 0 0 6 10 10 23 10 18 0 19 -2 7 -10z
m-4935 -14 c14 -13 10 -26 -7 -26 -5 0 -6 5 -3 10 4 6 -6 10 -22 11 -25 0 -26
1 -8 9 27 12 25 12 40 -4z m182 8 c-3 -3 -12 -4 -19 -1 -8 3 -5 6 6 6 11 1 17
-2 13 -5z m3639 -21 c-10 -10 -19 5 -10 18 6 11 8 11 12 0 2 -7 1 -15 -2 -18z
m349 17 c-3 -5 -11 -10 -16 -10 -6 0 -7 5 -4 10 3 6 11 10 16 10 6 0 7 -4 4
-10z m355 0 c-20 -13 -43 -13 -35 0 3 6 16 10 28 10 18 0 19 -2 7 -10z m1148
-5 c10 -10 -143 -5 -158 5 -10 7 11 9 69 6 46 -3 86 -8 89 -11z m-5368 -5 c0
-10 -18 -14 -50 -12 -8 0 -42 -6 -75 -14 -33 -7 -71 -14 -85 -14 -67 1 51 29
203 49 4 1 7 -3 7 -9z m47 4 c-3 -3 -12 -4 -19 -1 -8 3 -5 6 6 6 11 1 17 -2
13 -5z m73 2 c0 -9 -40 -13 -46 -5 -3 5 6 9 20 9 14 0 26 -2 26 -4z m770 -28
c0 -6 -7 -5 -15 2 -8 7 -15 17 -15 22 0 6 7 5 15 -2 8 -7 15 -17 15 -22z
m3580 22 c-18 -11 -63 -13 -57 -2 3 4 20 8 39 9 24 2 29 0 18 -7z m106 -5
c-11 -8 -27 -15 -35 -15 -13 1 -12 4 3 15 11 8 27 15 35 15 13 -1 12 -4 -3
-15z m-3726 -26 c0 -6 -4 -7 -10 -4 -5 3 -10 11 -10 16 0 6 5 7 10 4 6 -3 10
-11 10 -16z m3385 11 c-3 -5 -14 -10 -23 -10 -15 0 -15 2 -2 10 20 13 33 13
25 0z m-4725 -16 c-19 -8 -46 -13 -60 -11 -23 3 -23 4 10 14 19 6 46 11 60 12
22 0 21 -2 -10 -15z m5785 7 c-6 -5 -35 -12 -65 -15 -51 -6 -54 -6 -36 9 21
16 118 22 101 6z m-5950 -11 c-3 -5 -11 -10 -16 -10 -6 0 -7 5 -4 10 3 6 11
10 16 10 6 0 7 -4 4 -10z m4372 -20 c0 -24 -4 -30 -23 -30 -28 0 -35 19 -15
42 23 27 38 22 38 -12z m-3987 10 c-8 -5 -19 -10 -25 -10 -5 0 -3 5 5 10 8 5
20 10 25 10 6 0 3 -5 -5 -10z m4320 -4 c0 -3 -4 -8 -10 -11 -5 -3 -10 -1 -10
4 0 6 5 11 10 11 6 0 10 -2 10 -4z m1280 0 c0 -2 -7 -7 -16 -10 -8 -3 -12 -2
-9 4 6 10 25 14 25 6z m-1807 -32 c-3 -8 -9 -14 -13 -14 -13 0 -22 19 -15 30
9 14 34 0 28 -16z m-4020 2 c13 -9 62 -17 116 -21 52 -3 116 -13 143 -21 26
-9 59 -14 72 -10 13 3 36 -1 52 -9 35 -18 48 -19 74 -2 15 8 23 9 28 1 4 -6
21 -11 37 -11 17 0 43 -3 58 -7 48 -12 29 12 -24 29 -118 40 -2 24 159 -22 64
-17 78 -11 28 12 -46 22 -46 28 0 19 28 -5 35 -4 29 6 -5 9 -23 11 -57 7 -43
-5 -47 -4 -34 9 12 11 23 12 53 5 210 -54 233 -59 244 -45 8 9 16 11 29 4 9
-5 20 -7 22 -5 3 3 22 -2 42 -10 35 -15 56 -13 56 4 0 4 -9 12 -21 17 -18 8
-19 12 -7 22 12 9 19 7 36 -13 12 -14 17 -25 12 -25 -6 0 -10 -9 -10 -20 0
-14 7 -20 24 -20 13 0 29 -7 36 -15 7 -9 15 -13 18 -11 2 3 -4 13 -13 23 -17
17 -17 18 6 24 13 3 29 3 34 -1 6 -4 26 -11 45 -15 49 -10 53 -15 35 -35 -9
-10 -14 -24 -10 -29 3 -6 1 -11 -4 -11 -6 0 -11 -5 -11 -12 0 -7 7 -5 18 5 15
14 19 14 37 1 11 -8 20 -20 20 -26 0 -6 13 -15 30 -19 23 -7 34 -4 51 12 22
20 23 20 50 3 27 -18 27 -18 17 0 -11 20 -100 49 -108 35 -10 -15 -75 7 -75
25 0 19 25 38 47 36 33 -4 53 0 53 10 0 5 -8 7 -17 4 -14 -5 -15 -4 -4 4 24
17 41 3 34 -29 -4 -23 -2 -29 11 -29 9 0 26 -9 38 -20 24 -22 38 -26 38 -10 0
6 -4 10 -10 10 -5 0 -10 5 -10 10 0 6 7 10 16 10 12 0 15 -7 11 -27 -3 -18 0
-31 10 -38 12 -9 6 -11 -26 -13 -23 -2 -41 1 -41 6 0 5 -7 9 -16 9 -11 0 -14
-7 -11 -24 3 -15 -1 -27 -8 -29 -14 -6 -28 -44 -16 -44 9 0 41 38 41 50 0 6 3
10 6 10 10 0 63 -58 58 -63 -3 -2 7 -8 22 -11 19 -5 24 -10 16 -18 -10 -10
-25 -13 -75 -17 -11 -1 -17 -8 -15 -18 2 -12 -2 -17 -12 -15 -45 11 -59 13
-102 17 -58 4 -74 -11 -21 -21 21 -3 48 -12 60 -20 28 -18 33 -18 33 1 0 17
16 20 25 5 14 -23 -42 -33 -120 -21 -42 6 -82 11 -90 11 -23 0 -17 -18 7 -22
12 -2 23 -8 25 -15 3 -9 -20 -10 -89 -7 -95 5 -125 8 -263 24 -96 12 -299 14
-340 4 -24 -6 -27 -4 -22 10 8 20 -5 20 -41 2 -24 -12 -79 -21 -182 -30 -19
-2 -53 -11 -75 -20 -30 -13 -54 -16 -97 -11 -48 6 -59 4 -64 -9 -3 -8 -22 -19
-42 -22 -21 -4 -51 -13 -68 -20 -30 -13 -32 -12 -27 6 3 11 0 20 -6 20 -6 0
-11 -6 -11 -14 0 -19 -32 -30 -42 -14 -6 11 -10 10 -17 -1 -6 -10 -10 -10 -16
-1 -4 7 -2 16 5 20 8 5 5 9 -10 13 -25 7 -23 26 6 41 38 21 40 46 3 46 -10 0
-19 5 -19 11 0 6 7 9 15 5 9 -3 15 0 15 9 0 8 12 17 28 21 71 15 67 29 -9 33
-63 3 -65 4 -71 35 -4 20 0 25 25 30 16 3 51 6 78 6 27 0 49 4 49 8 0 12 -62
30 -92 26 -29 -3 -56 37 -50 74 3 19 8 21 40 17 93 -11 182 -14 182 -6 0 13
-27 21 -75 21 -41 0 -100 21 -89 32 3 3 22 2 42 -3 50 -12 85 -11 77 1 -3 6
-15 10 -26 10 -11 0 -36 7 -57 16 -32 13 -35 17 -19 25 9 6 22 7 27 4 5 -3 49
-8 97 -10 49 -2 111 -7 138 -11 69 -8 47 10 -29 25 -33 6 -83 11 -113 11 -34
0 -55 5 -58 13 -3 7 -24 12 -55 12 -75 -1 -64 14 18 24 7 0 23 -5 35 -13z
m120 7 c-7 -2 -19 -2 -25 0 -7 3 -2 5 12 5 14 0 19 -2 13 -5z m5517 -3 c0 -5
-9 -10 -21 -10 -11 0 -17 5 -14 10 3 6 13 10 21 10 8 0 14 -4 14 -10z m-1160
-10 c0 -5 -2 -10 -4 -10 -3 0 -8 5 -11 10 -3 6 -1 10 4 10 6 0 11 -4 11 -10z
m-4105 -11 c61 -16 67 -18 61 -28 -3 -5 -22 -3 -43 5 -21 7 -63 14 -93 14 -30
1 -73 5 -95 9 -34 7 -27 9 45 10 47 0 103 -4 125 -10z m270 1 c3 -5 2 -10 -4
-10 -5 0 -13 5 -16 10 -3 6 -2 10 4 10 5 0 13 -4 16 -10z m304 -6 c9 -8 -85
-2 -104 6 -13 6 2 7 40 3 33 -3 62 -7 64 -9z m-1029 -35 c0 -8 -17 -11 -97
-14 -34 -1 -33 10 2 17 38 8 95 7 95 -3z m4023 -4 c-2 -5 -9 -10 -15 -10 -7 0
-16 -4 -19 -8 -3 -5 -8 0 -11 10 -4 15 0 19 21 18 14 0 25 -4 24 -10z m162 -5
c8 0 23 -9 34 -21 11 -12 24 -18 30 -15 5 4 12 2 16 -4 10 -16 -51 -12 -65 5
-7 8 -20 15 -30 15 -10 0 -21 7 -24 16 -5 12 -2 15 10 10 8 -3 22 -6 29 -6z
m-2585 -20 c0 -5 -7 -10 -15 -10 -8 0 -15 5 -15 10 0 6 7 10 15 10 8 0 15 -4
15 -10z m-1672 -27 c-10 -2 -28 -2 -40 0 -13 2 -5 4 17 4 22 1 32 -1 23 -4z
m4019 -19 c-3 -3 -12 -4 -19 -1 -8 3 -5 6 6 6 11 1 17 -2 13 -5z m283 -44 c0
-5 -9 -10 -21 -10 -11 0 -17 5 -14 10 3 6 13 10 21 10 8 0 14 -4 14 -10z
m-2511 -22 c-13 -24 -25 -23 -25 1 0 12 7 19 17 18 14 -1 15 -5 8 -19z m2561
12 c0 -5 -9 -10 -21 -10 -11 0 -17 5 -14 10 3 6 13 10 21 10 8 0 14 -4 14 -10z
m-2610 -4 c0 -3 -4 -8 -10 -11 -5 -3 -10 -1 -10 4 0 6 5 11 10 11 6 0 10 -2
10 -4z m80 -67 c0 -5 -4 -9 -10 -9 -5 0 -10 7 -10 16 0 8 5 12 10 9 6 -3 10
-10 10 -16z m-35 1 c3 -5 -3 -10 -14 -10 -12 0 -21 5 -21 10 0 6 6 10 14 10 8
0 18 -4 21 -10z m1956 -43 c-10 -9 -11 -8 -5 6 3 10 9 15 12 12 3 -3 0 -11 -7
-18z m1219 -117 c-20 -13 -40 -13 -40 0 0 6 12 10 28 10 21 0 24 -2 12 -10z
m130 -1 c0 -16 -23 -21 -66 -14 -62 9 -55 24 11 22 30 -1 55 -4 55 -8z m40 -9
c0 -5 -5 -10 -11 -10 -5 0 -7 5 -4 10 3 6 8 10 11 10 2 0 4 -4 4 -10z m135
-20 c-3 -5 -10 -10 -16 -10 -5 0 -9 5 -9 10 0 6 7 10 16 10 8 0 12 -4 9 -10z
m-3592 -11 c-8 -8 -16 -8 -30 0 -16 9 -14 10 12 11 21 0 26 -3 18 -11z m-130
-18 c26 -5 51 -12 55 -16 4 -4 -13 -5 -38 -1 -25 4 -57 7 -72 7 -20 -1 -28 4
-28 15 0 11 5 14 18 9 9 -4 38 -10 65 -14z m3947 -31 c0 -5 -5 -10 -11 -10 -5
0 -7 5 -4 10 3 6 8 10 11 10 2 0 4 -4 4 -10z m-3893 -36 c13 -4 20 -10 17 -15
-8 -14 -68 -10 -90 6 -18 13 -17 14 16 15 19 0 45 -3 57 -6z m2644 -17 c-19
-12 -49 -30 -65 -40 -17 -10 -36 -25 -43 -34 -6 -8 -17 -12 -23 -8 -18 11 14
40 70 64 27 12 52 26 55 31 3 6 14 10 23 10 11 0 4 -8 -17 -23z m662 -42 c18
-13 18 -14 -5 -26 -31 -17 -90 -12 -106 9 -10 14 -10 18 5 24 30 11 87 8 106
-7z m-3776 -18 c6 -7 -17 -10 -75 -10 -35 0 -47 7 -38 21 5 9 101 0 113 -11z
m2503 -67 c0 -5 -2 -10 -4 -10 -3 0 -8 5 -11 10 -3 6 -1 10 4 10 6 0 11 -4 11
-10z m403 -80 c-3 -11 -14 -20 -24 -20 -22 0 -24 11 -7 28 19 19 37 14 31 -8z
m-2143 -46 c0 -8 -7 -14 -15 -14 -15 0 -21 21 -9 33 10 9 24 -2 24 -19z m2017
-50 c-3 -3 -12 -4 -19 -1 -8 3 -5 6 6 6 11 1 17 -2 13 -5z m213 -119 c0 -8 -4
-15 -9 -15 -5 0 -11 7 -15 15 -3 9 0 15 9 15 8 0 15 -7 15 -15z m-2330 -19 c0
-3 -4 -8 -10 -11 -5 -3 -10 -1 -10 4 0 6 5 11 10 11 6 0 10 -2 10 -4z m-1309
-36 c31 -25 13 -26 -26 0 -20 13 -24 20 -14 20 9 0 27 -9 40 -20z m3625 -12
c-3 -17 -8 -33 -10 -35 -2 -2 -22 3 -44 10 -30 10 -42 11 -45 3 -2 -6 -7 -8
-11 -5 -3 3 -3 14 0 23 5 14 14 16 39 12 22 -5 36 -2 45 9 21 25 33 18 26 -17z
m2607 -1828 c3 -11 1 -23 -4 -26 -5 -3 -9 6 -9 20 0 31 6 34 13 6z m-109 -956
c3 -8 2 -12 -4 -9 -6 3 -10 10 -10 16 0 14 7 11 14 -7z m-7299 -173 c3 -5 1
-12 -5 -16 -5 -3 -10 1 -10 9 0 18 6 21 15 7z m262 -823 c-3 -8 -6 -5 -6 6 -1
11 2 17 5 13 3 -3 4 -12 1 -19z m143 -268 c0 -5 -5 -10 -11 -10 -5 0 -7 5 -4
10 3 6 8 10 11 10 2 0 4 -4 4 -10z m6027 -786 c-3 -3 -12 -4 -19 -1 -8 3 -5 6
6 6 11 1 17 -2 13 -5z m-97 -98 c0 -3 -4 -8 -10 -11 -5 -3 -10 -1 -10 4 0 6 5
11 10 11 6 0 10 -2 10 -4z m-4445 -6437 c-4 -5 1 -12 10 -15 9 -4 14 -12 11
-19 -2 -7 4 -21 15 -31 10 -9 19 -24 19 -32 0 -9 7 -22 15 -31 8 -9 28 -30 44
-48 16 -17 44 -39 62 -48 18 -10 41 -27 50 -39 15 -19 74 -33 63 -15 -2 4 1
19 8 34 8 19 9 28 1 33 -6 4 -14 25 -18 46 -5 27 -4 37 3 32 7 -4 10 6 9 29
-1 19 -5 35 -10 35 -4 0 0 11 9 25 9 14 12 25 8 26 -5 0 0 4 11 9 19 8 19 8
-5 19 -21 9 -18 10 20 5 55 -8 60 -12 36 -30 -17 -12 -18 -14 -3 -14 9 0 17 5
17 10 0 12 87 13 94 1 5 -8 70 -19 151 -25 22 -2 54 -6 70 -10 17 -3 64 -9
105 -12 41 -3 89 -7 105 -8 17 -2 40 -4 52 -4 14 -1 21 -7 17 -16 -4 -10 14
-16 68 -25 40 -6 81 -12 90 -12 9 0 22 -7 29 -15 7 -9 16 -11 23 -5 15 11 95
21 101 11 2 -4 28 -3 57 1 28 5 61 7 72 4 74 -14 86 -14 102 3 13 12 19 13 22
4 2 -6 8 -12 13 -12 6 0 7 5 4 10 -7 11 18 14 29 3 3 -4 27 -8 52 -10 60 -3
71 -14 91 -85 9 -32 20 -58 25 -58 4 0 8 -12 8 -26 0 -22 2 -25 15 -14 8 7 15
19 15 26 0 8 7 14 15 14 8 0 15 9 15 19 0 19 25 36 48 32 7 -1 12 2 11 6 -4
23 2 35 17 29 8 -3 13 -2 10 2 -3 5 9 21 26 37 33 31 106 44 120 22 6 -9 10
-9 16 -1 4 7 54 14 123 18 l117 6 7 -27 c3 -15 17 -37 31 -50 13 -12 24 -29
24 -37 0 -8 9 -20 20 -26 14 -7 20 -7 20 0 0 5 9 1 20 -10 21 -21 50 -17 50 6
0 8 4 14 9 14 5 0 12 -24 15 -52 2 -29 9 -75 15 -103 l9 -50 0 50 c-1 118 2
143 18 149 13 5 14 3 6 -7 -17 -20 1 -42 24 -28 11 6 13 11 7 11 -22 0 -14 20
7 20 11 0 20 5 20 10 0 6 -7 10 -17 10 -29 0 -5 13 33 17 34 4 36 3 23 -14 -8
-10 -22 -24 -32 -31 -9 -7 -15 -17 -13 -20 8 -13 68 -13 83 -1 10 9 17 9 25 1
16 -16 41 -15 35 1 -2 6 -10 11 -16 9 -7 -1 -10 2 -6 8 3 5 1 10 -4 10 -6 0
-11 4 -11 9 0 4 11 6 24 4 13 -3 37 2 54 11 35 18 103 17 110 -3 3 -9 -2 -11
-17 -6 -12 4 -21 2 -21 -4 0 -12 29 -15 54 -5 8 3 12 13 9 22 -4 14 -3 15 5 2
6 -8 9 -17 6 -21 -4 -7 26 -23 39 -21 12 3 8 -16 -5 -21 -8 -3 -6 -6 5 -6 9
-1 17 4 17 11 0 9 3 9 12 0 14 -14 42 -16 34 -3 -3 5 6 12 20 15 15 4 43 18
62 31 36 24 36 24 54 5 10 -11 23 -20 28 -20 5 0 7 -7 4 -15 -4 -8 -1 -15 5
-15 6 0 8 -7 5 -15 -8 -21 2 -19 25 6 13 15 21 17 26 9 4 -7 4 -15 -1 -19 -5
-3 -10 -17 -12 -31 -1 -18 1 -21 7 -11 10 15 32 6 30 -12 -3 -26 1 -38 12 -32
7 5 8 -5 3 -32 -8 -46 -8 -43 1 -70 4 -13 12 -23 17 -23 5 0 7 9 3 20 -5 17
-2 19 24 15 28 -3 29 -2 21 21 -12 30 5 33 21 3 14 -27 22 -17 44 49 9 28 19
52 22 52 9 0 -9 -84 -25 -115 -8 -16 -25 -61 -38 -100 -12 -38 -35 -101 -49
-140 -15 -38 -42 -114 -61 -168 -19 -53 -50 -136 -69 -184 -19 -48 -35 -92
-35 -97 0 -6 -9 -33 -20 -61 -111 -286 -193 -532 -265 -795 -39 -144 -73 -265
-105 -370 -29 -93 -134 -547 -186 -799 -24 -118 -74 -318 -110 -445 -36 -127
-84 -301 -106 -386 -38 -149 -60 -234 -146 -570 -45 -173 -137 -547 -176 -715
-15 -60 -30 -123 -35 -140 -9 -29 -129 -498 -138 -543 -3 -12 -9 -25 -14 -28
-5 -3 -9 -15 -9 -27 0 -28 -23 -127 -30 -127 -3 0 -20 42 -39 93 -19 50 -68
178 -109 282 -143 364 -218 567 -342 925 -48 140 -116 329 -150 420 -65 176
-101 276 -174 485 -25 72 -57 162 -71 200 -14 39 -43 122 -65 185 -21 63 -55
160 -76 215 -107 293 -149 427 -209 662 -13 50 -28 99 -33 110 -5 10 -12 34
-16 53 -10 58 -59 205 -64 192 -2 -7 6 -42 17 -79 49 -160 34 -179 -18 -23
-18 52 -62 174 -98 270 -62 163 -203 568 -223 635 -4 17 -29 89 -55 160 -65
179 -89 255 -141 440 -106 378 -109 390 -72 320 18 -34 22 -37 28 -21 6 17 7
18 13 3 8 -21 37 -22 37 -2 0 8 6 15 14 15 8 0 16 6 18 12 6 17 38 -14 38 -36
0 -9 4 -16 8 -16 15 0 -24 184 -73 345 -53 174 -66 230 -61 263 3 23 1 31 -7
27 -7 -4 3 7 22 24 27 24 38 28 53 20 10 -5 16 -14 13 -20z m2383 -108 c10 -6
9 -10 -7 -14 -21 -5 -36 5 -24 17 8 8 15 7 31 -3z m-658 -21 c-20 -13 -33 -13
-25 0 3 6 14 10 23 10 15 0 15 -2 2 -10z m-1615 -10 c3 -5 1 -10 -4 -10 -6 0
-11 5 -11 10 0 6 2 10 4 10 3 0 8 -4 11 -10z m2259 -9 c3 -5 -1 -11 -9 -15 -9
-3 -15 0 -15 9 0 16 16 20 24 6z m113 -53 c-3 -7 -5 -2 -5 12 0 14 2 19 5 13
2 -7 2 -19 0 -25z m188 -58 c-3 -5 -10 -10 -16 -10 -5 0 -9 5 -9 10 0 6 7 10
16 10 8 0 12 -4 9 -10z m809 -54 c-3 -15 -8 -25 -11 -23 -2 3 -1 17 3 31 3 15
8 25 11 23 2 -3 1 -17 -3 -31z m-79 -96 c3 -5 1 -10 -4 -10 -6 0 -11 5 -11 10
0 6 2 10 4 10 3 0 8 -4 11 -10z m-1434 -7517 c8 -8 -5 -15 -47 -23 -33 -7 -71
-19 -87 -27 -15 -7 -56 -15 -90 -17 -34 -2 -84 -11 -110 -21 -83 -28 -74 2 14
50 29 15 73 34 98 41 53 15 206 13 222 -3z m36 -987 c-19 -14 -105 -31 -114
-23 -6 6 84 35 112 36 19 0 19 0 2 -13z"/>
<path d="M12525 28740 c3 -5 11 -10 16 -10 6 0 7 5 4 10 -3 6 -11 10 -16 10
-6 0 -7 -4 -4 -10z"/>
<path d="M13993 25949 c14 -8 22 -8 30 0 8 8 3 11 -18 11 -26 -1 -28 -2 -12
-11z"/>
<path d="M14205 25944 c36 -28 55 -36 55 -23 0 17 -31 38 -55 38 l-20 0 20
-15z"/>
<path d="M14354 25895 c6 -13 21 -27 33 -30 12 -3 35 -17 53 -31 17 -15 33
-24 35 -22 8 7 -35 48 -49 48 -8 0 -16 7 -20 15 -3 8 -12 15 -21 15 -8 0 -15
4 -15 9 0 5 -6 11 -14 14 -11 4 -11 1 -2 -18z"/>
<path d="M13759 25895 c37 -16 81 -21 66 -6 -6 5 -30 12 -55 15 l-45 7 34 -16z"/>
<path d="M13018 25883 c6 -2 18 -2 25 0 6 3 1 5 -13 5 -14 0 -19 -2 -12 -5z"/>
<path d="M12592 25840 c0 -19 2 -27 5 -17 2 9 2 25 0 35 -3 9 -5 1 -5 -18z"/>
<path d="M13675 25860 c3 -5 8 -10 11 -10 2 0 4 5 4 10 0 6 -5 10 -11 10 -5 0
-7 -4 -4 -10z"/>
<path d="M12934 25850 c-12 -5 -24 -21 -27 -36 l-5 -28 18 24 c10 13 26 30 36
37 20 15 10 16 -22 3z"/>
<path d="M13705 25851 c-7 -13 -9 -12 38 -16 27 -3 37 0 34 8 -5 15 -63 21
-72 8z"/>
<path d="M13140 25800 c0 -5 7 -7 15 -4 8 4 15 8 15 10 0 2 -7 4 -15 4 -8 0
-15 -4 -15 -10z"/>
<path d="M13745 25803 c11 -3 24 -9 30 -14 5 -5 23 -9 40 -9 17 0 36 -5 41
-10 7 -7 30 -7 65 -2 l54 9 -60 7 c-33 4 -70 11 -83 17 -13 5 -42 8 -65 8 -23
-1 -33 -3 -22 -6z"/>
<path d="M9145 25790 c-3 -5 1 -10 9 -10 9 0 16 5 16 10 0 6 -4 10 -9 10 -6 0
-13 -4 -16 -10z"/>
<path d="M12831 25786 c-8 -9 -11 -19 -7 -23 9 -9 29 13 24 27 -2 8 -8 7 -17
-4z"/>
<path d="M9100 25770 c-9 -6 -10 -10 -3 -10 6 0 15 5 18 10 8 12 4 12 -15 0z"/>
<path d="M9212 25759 c-18 -5 -30 -14 -27 -19 3 -5 13 -6 21 -3 15 5 36 9 77
12 9 0 17 6 17 11 0 12 -43 12 -88 -1z"/>
<path d="M12342 25750 c7 -11 17 -20 22 -20 5 0 1 9 -9 20 -10 11 -20 20 -22
20 -2 0 2 -9 9 -20z"/>
<path d="M9015 25740 c-38 -25 -21 -25 25 0 19 11 28 19 20 20 -8 0 -28 -9
-45 -20z"/>
<path d="M9678 25753 c7 -3 16 -2 19 1 4 3 -2 6 -13 5 -11 0 -14 -3 -6 -6z"/>
<path d="M9610 25740 c0 -12 8 -12 35 0 18 8 17 9 -7 9 -16 1 -28 -3 -28 -9z"/>
<path d="M12790 25735 c-7 -9 -11 -18 -8 -20 3 -3 11 1 18 10 7 9 11 18 8 20
-3 3 -11 -1 -18 -10z"/>
<path d="M12525 25650 c0 -75 2 -87 13 -73 14 19 15 36 6 111 -10 80 -19 62
-19 -38z"/>
<path d="M12478 25674 c-1 -27 -1 -58 0 -69 5 -63 4 -135 -3 -174 -6 -34 -4
-42 6 -39 8 3 15 16 15 29 1 13 2 42 4 64 2 52 -9 227 -15 233 -3 3 -6 -17 -7
-44z"/>
<path d="M8738 25705 c-3 -3 -18 -8 -34 -11 -32 -6 -40 -11 -31 -21 4 -3 18
-1 32 5 14 7 35 12 45 12 11 0 20 5 20 10 0 11 -23 14 -32 5z"/>
<path d="M10010 25706 c0 -2 7 -7 16 -10 8 -3 12 -2 9 4 -6 10 -25 14 -25 6z"/>
<path d="M12372 25690 c0 -14 2 -19 5 -12 2 6 2 18 0 25 -3 6 -5 1 -5 -13z"/>
<path d="M12276 25687 c3 -10 9 -15 12 -12 3 3 0 11 -7 18 -10 9 -11 8 -5 -6z"/>
<path d="M12587 25649 c-4 -16 -3 -18 9 -8 7 6 11 15 8 20 -8 13 -11 11 -17
-12z"/>
<path d="M10181 25633 c6 -17 17 -37 25 -44 25 -21 17 17 -11 48 l-25 28 11
-32z"/>
<path d="M12296 25645 c4 -8 8 -15 10 -15 2 0 4 7 4 15 0 8 -4 15 -10 15 -5 0
-7 -7 -4 -15z"/>
<path d="M12175 25611 c6 -37 11 -48 21 -39 3 3 -2 21 -11 39 l-15 34 5 -34z"/>
<path d="M12312 25590 c0 -14 2 -19 5 -12 2 6 2 18 0 25 -3 6 -5 1 -5 -13z"/>
<path d="M12351 25588 c1 -13 5 -34 9 -48 7 -20 8 -16 9 23 1 26 -3 47 -9 47
-5 0 -10 -10 -9 -22z"/>
<path d="M12400 25599 c0 -5 5 -7 10 -4 6 3 10 8 10 11 0 2 -4 4 -10 4 -5 0
-10 -5 -10 -11z"/>
<path d="M12265 25560 c3 -5 8 -10 11 -10 2 0 4 5 4 10 0 6 -5 10 -11 10 -5 0
-7 -4 -4 -10z"/>
<path d="M12216 25523 c9 -38 14 -42 14 -10 0 14 -5 29 -10 32 -7 4 -8 -3 -4
-22z"/>
<path d="M10260 25511 c0 -6 4 -13 10 -16 6 -3 7 1 4 9 -7 18 -14 21 -14 7z"/>
<path d="M10428 25444 c-5 -4 -8 -19 -8 -33 1 -23 2 -24 11 -8 11 19 9 53 -3
41z"/>
<path d="M12330 25413 c0 -13 5 -23 10 -23 13 0 13 11 0 30 -8 12 -10 11 -10
-7z"/>
<path d="M12240 25380 c0 -5 5 -10 11 -10 5 0 7 5 4 10 -3 6 -8 10 -11 10 -2
0 -4 -4 -4 -10z"/>
<path d="M12460 25360 c-8 -5 -12 -11 -9 -14 2 -3 11 -1 19 4 8 5 12 11 9 14
-2 3 -11 1 -19 -4z"/>
<path d="M10400 25330 c0 -11 5 -20 10 -20 6 0 10 9 10 20 0 11 -4 20 -10 20
-5 0 -10 -9 -10 -20z"/>
<path d="M12220 25250 c0 -5 5 -10 10 -10 6 0 10 5 10 10 0 6 -4 10 -10 10 -5
0 -10 -4 -10 -10z"/>
<path d="M10370 25239 c0 -5 5 -7 10 -4 6 3 10 8 10 11 0 2 -4 4 -10 4 -5 0
-10 -5 -10 -11z"/>
<path d="M10450 25195 c0 -10 7 -15 18 -13 9 2 16 -3 15 -9 -2 -7 2 -13 7 -13
13 0 13 6 0 31 -13 23 -40 25 -40 4z"/>
<path d="M10493 25153 c-7 -2 -13 -11 -13 -18 0 -17 37 -8 44 11 5 14 -8 17
-31 7z"/>
<path d="M13775 24411 c-22 -11 -32 -20 -23 -20 10 -1 15 -7 12 -15 -3 -7 2
-16 10 -19 9 -4 16 -17 16 -30 0 -23 45 -76 55 -65 9 9 -17 58 -30 58 -7 0
-15 10 -18 23 -2 12 -8 30 -12 40 -5 13 -2 17 14 17 12 0 21 6 21 15 0 18 4
19 -45 -4z"/>
<path d="M9958 24404 c13 -9 21 -22 18 -30 -3 -8 -1 -14 4 -14 6 0 10 6 10 14
0 29 -13 46 -33 46 -21 0 -21 0 1 -16z"/>
<path d="M9916 24385 c9 -14 20 -25 26 -25 11 0 -23 49 -35 50 -4 0 0 -11 9
-25z"/>
<path d="M13882 24398 c-7 -7 -8 -17 -1 -30 10 -19 7 -21 -28 -18 -13 1 -23
-3 -23 -9 0 -6 10 -11 23 -11 13 0 28 -5 35 -12 14 -14 27 -4 16 14 -4 7 -7
27 -5 45 3 36 1 39 -17 21z"/>
<path d="M9110 24384 c0 -8 5 -12 10 -9 6 3 10 10 10 16 0 5 -4 9 -10 9 -5 0
-10 -7 -10 -16z"/>
<path d="M9798 24383 c-22 -6 -24 -23 -3 -23 8 0 15 4 15 10 0 13 51 10 69 -4
11 -9 13 -8 9 4 -5 15 -56 23 -90 13z"/>
<path d="M9070 24370 c0 -5 5 -10 10 -10 6 0 10 5 10 10 0 6 -4 10 -10 10 -5
0 -10 -4 -10 -10z"/>
<path d="M9221 24352 c-20 -7 -11 -22 13 -22 13 0 26 -4 28 -10 3 -11 48 -2
48 10 0 5 -9 6 -20 3 -13 -3 -20 0 -20 9 0 13 -25 18 -49 10z"/>
<path d="M9670 24350 c0 -5 5 -10 11 -10 5 0 7 5 4 10 -3 6 -8 10 -11 10 -2 0
-4 -4 -4 -10z"/>
<path d="M9088 24315 c-5 -23 -2 -25 26 -25 17 1 43 -2 59 -6 21 -5 27 -3 27
11 0 13 -6 15 -30 10 -19 -4 -30 -3 -30 4 0 6 -7 11 -15 11 -8 0 -15 5 -15 10
0 21 -18 9 -22 -15z"/>
<path d="M13750 24315 c0 -17 -16 -20 -25 -5 -4 7 -11 8 -18 2 -7 -5 -27 -13
-44 -17 -28 -5 -33 -11 -33 -35 0 -26 2 -28 40 -26 21 1 42 5 46 9 11 10 44 9
44 -2 0 -5 14 -9 30 -9 37 1 38 6 4 18 -22 9 -25 15 -22 40 3 18 0 31 -9 34
-7 3 -13 -1 -13 -9z"/>
<path d="M9019 24299 c-19 -16 -20 -19 -6 -15 10 3 25 6 33 6 8 0 14 7 14 15
0 21 -14 19 -41 -6z"/>
<path d="M9736 24312 c-3 -6 -1 -14 5 -17 14 -9 20 -2 10 14 -6 8 -11 9 -15 3z"/>
<path d="M9348 24291 c-15 -10 -22 -11 -27 -2 -8 13 -67 9 -81 -5 -6 -6 -5
-15 1 -24 8 -13 11 -13 20 3 14 24 38 21 49 -5 7 -18 9 -19 9 -5 1 9 5 17 10
17 5 0 17 3 26 6 13 6 15 2 9 -22 -7 -27 -6 -28 11 -14 25 20 65 60 65 65 0 9
-75 -2 -92 -14z"/>
<path d="M12860 24301 c0 -6 5 -13 10 -16 6 -3 10 1 10 9 0 9 -4 16 -10 16 -5
0 -10 -4 -10 -9z"/>
<path d="M13070 24289 c0 -11 5 -17 10 -14 6 3 10 13 10 21 0 8 -4 14 -10 14
-5 0 -10 -9 -10 -21z"/>
<path d="M13158 24303 c7 -3 16 -2 19 1 4 3 -2 6 -13 5 -11 0 -14 -3 -6 -6z"/>
<path d="M13487 24303 c-3 -5 15 -8 39 -8 24 0 44 3 44 8 0 4 -18 7 -39 7 -22
0 -42 -3 -44 -7z"/>
<path d="M9544 24289 c11 -27 -11 -41 -73 -46 -77 -7 -67 -22 18 -25 45 -2 66
1 68 10 3 6 13 12 23 12 22 0 45 26 30 35 -5 3 -15 3 -21 0 -5 -4 -19 1 -30
11 -14 13 -18 14 -15 3z"/>
<path d="M13120 24291 c0 -6 5 -13 10 -16 6 -3 10 1 10 9 0 9 -4 16 -10 16 -5
0 -10 -4 -10 -9z"/>
<path d="M13200 24290 c0 -5 10 -10 23 -10 18 0 19 2 7 10 -19 13 -30 13 -30
0z"/>
<path d="M9627 24261 c-4 -18 -13 -31 -22 -31 -8 0 -15 -9 -15 -20 0 -11 6
-20 13 -20 7 0 18 9 25 20 8 13 23 20 42 20 26 0 28 2 21 22 -9 25 -31 37 -31
17 0 -8 -6 -5 -13 6 -13 17 -14 16 -20 -14z"/>
<path d="M9710 24270 c0 -5 5 -10 10 -10 6 0 10 5 10 10 0 6 -4 10 -10 10 -5
0 -10 -4 -10 -10z"/>
<path d="M13274 24258 c0 -12 7 -23 15 -26 10 -3 12 0 8 12 -4 10 -7 22 -7 27
0 5 -4 9 -9 9 -4 0 -8 -10 -7 -22z"/>
<path d="M12951 24254 c0 -11 3 -14 6 -6 3 7 2 16 -1 19 -3 4 -6 -2 -5 -13z"/>
<path d="M13025 24260 c4 -6 11 -8 16 -5 14 9 11 15 -7 15 -8 0 -12 -5 -9 -10z"/>
<path d="M13474 24255 c-40 -7 -85 -20 -102 -29 -17 -9 -42 -16 -56 -16 -14 0
-28 -4 -31 -10 -7 -11 55 -52 70 -46 6 2 20 -13 32 -33 19 -30 23 -33 23 -14
0 28 35 49 54 34 10 -8 17 -7 26 4 9 11 17 12 31 4 16 -8 19 -6 19 11 0 11 -8
24 -17 27 -10 4 -23 13 -28 20 -11 15 -57 4 -70 -17 -9 -15 -25 -2 -25 22 0
15 5 19 20 15 11 -3 20 -1 20 5 0 5 16 8 35 5 33 -5 63 -28 85 -67 8 -13 11
-13 22 3 8 10 18 17 23 15 6 -2 11 2 13 7 2 6 -7 12 -20 15 -16 4 -24 14 -26
33 -4 30 0 30 -98 12z m81 -15 c3 -5 -1 -10 -9 -10 -9 0 -16 5 -16 10 0 6 4
10 9 10 6 0 13 -4 16 -10z m-165 -61 c0 -5 -4 -9 -10 -9 -5 0 -10 7 -10 16 0
8 5 12 10 9 6 -3 10 -10 10 -16z"/>
<path d="M13173 24246 c-17 -8 -23 -20 -23 -43 0 -17 -4 -33 -9 -35 -5 -1 -12
-19 -15 -38 -5 -28 -5 -31 4 -17 6 9 18 17 26 17 8 0 12 -4 9 -10 -3 -5 -2
-10 4 -10 6 0 13 16 17 35 6 32 17 41 47 36 11 -2 9 17 -3 24 -5 3 -10 1 -10
-6 0 -10 -3 -10 -11 -2 -6 6 -18 9 -25 6 -18 -7 -18 7 2 35 8 12 14 21 12 21
-2 -1 -13 -6 -25 -13z"/>
<path d="M14100 24220 c0 -5 5 -10 11 -10 5 0 7 5 4 10 -3 6 -8 10 -11 10 -2
0 -4 -4 -4 -10z"/>
<path d="M12995 24210 c3 -5 8 -10 11 -10 2 0 4 5 4 10 0 6 -5 10 -11 10 -5 0
-7 -4 -4 -10z"/>
<path d="M10155 22350 c4 -25 11 -49 16 -54 5 -6 9 -27 9 -47 0 -21 4 -40 9
-43 4 -3 11 -20 15 -37 3 -18 21 -51 40 -73 18 -23 40 -54 48 -69 15 -29 31
-41 108 -78 45 -22 59 -23 195 -19 39 1 117 -1 175 -5 58 -3 134 -6 169 -6 35
0 61 -3 57 -6 -9 -10 67 -43 109 -47 23 -2 58 -14 78 -25 21 -12 45 -21 55
-21 10 0 27 -7 39 -15 11 -8 54 -20 94 -27 41 -7 76 -15 79 -19 6 -7 121 -6
135 2 6 3 30 11 55 18 25 7 53 17 62 22 10 5 25 9 33 9 8 0 25 11 37 25 15 17
25 22 33 15 8 -7 19 -3 34 11 12 12 25 18 28 15 3 -3 12 -1 18 4 13 11 72 23
110 23 71 0 185 -16 215 -30 42 -20 157 -32 197 -21 15 5 41 10 56 12 15 2 36
11 46 20 9 9 25 16 33 16 26 0 48 11 48 24 0 6 16 29 35 50 19 22 35 43 35 47
0 5 11 25 25 45 14 20 25 43 25 50 0 19 -26 18 -34 -1 -6 -15 -31 -16 -55 -1
-8 5 -16 4 -21 -4 -4 -7 -12 -10 -18 -6 -6 3 -14 2 -17 -4 -5 -8 -14 -6 -29 4
-21 13 -25 13 -38 0 -8 -9 -29 -16 -47 -16 -25 -1 -41 8 -76 46 -25 25 -45 50
-45 55 0 5 -15 19 -34 30 -29 18 -45 20 -133 16 -55 -2 -112 -9 -127 -15 -15
-5 -37 -10 -49 -9 -15 0 -8 5 18 14 36 11 37 13 13 14 -39 1 -42 2 -53 17 -16
21 -137 24 -133 3 2 -6 -3 -14 -11 -17 -9 -3 -11 0 -6 8 6 9 1 10 -16 5 -13
-4 -26 -11 -29 -15 -12 -18 -103 -61 -117 -56 -9 4 -23 0 -32 -7 -14 -12 -80
-34 -121 -40 -8 -2 -21 -6 -27 -10 -7 -5 -13 -4 -13 2 0 20 -41 23 -62 4 -20
-17 -21 -17 -15 0 8 22 -11 22 -35 0 -10 -9 -18 -11 -18 -6 0 17 -33 25 -42
11 -5 -9 -8 -6 -8 10 0 24 -10 28 -28 10 -9 -9 -12 -9 -12 1 0 8 -7 10 -22 6
-17 -6 -20 -4 -14 10 9 25 -22 52 -62 52 -17 0 -40 7 -49 15 -10 8 -24 13 -30
11 -7 -3 -13 1 -13 8 0 7 -3 9 -7 6 -3 -4 -11 0 -17 9 -9 12 -17 13 -38 5 -18
-7 -31 -6 -44 3 -16 11 -73 15 -81 6 -2 -1 -7 -3 -13 -4 -22 -3 -9 -21 20 -29
46 -12 32 -18 -15 -6 -119 28 -185 39 -229 39 -41 0 -53 -5 -77 -30 -16 -16
-29 -37 -29 -45 0 -8 -5 -15 -11 -15 -6 0 -16 -6 -24 -12 -29 -28 -55 -47 -55
-41 0 3 -11 -4 -24 -16 -23 -22 -66 -23 -66 -1 0 4 -15 11 -34 14 -49 9 -85
60 -121 171 -25 77 -39 94 -30 35z m1673 -191 c-2 -6 -8 -10 -13 -10 -5 0 -11
4 -13 10 -2 6 4 11 13 11 9 0 15 -5 13 -11z"/>
<path d="M9650 22140 c0 -5 6 -10 14 -10 8 0 18 5 21 10 3 6 -3 10 -14 10 -12
0 -21 -4 -21 -10z"/>
<path d="M9554 22071 c-21 -14 -51 -40 -66 -57 -16 -18 -39 -35 -53 -38 -14
-4 -25 -11 -25 -16 0 -5 -27 -23 -60 -40 -34 -17 -64 -38 -67 -48 -8 -19 -43
-51 -58 -52 -5 0 -19 -15 -31 -33 -12 -20 -27 -31 -38 -29 -21 4 -48 -16 -40
-29 3 -5 -1 -16 -9 -23 -11 -11 -17 -12 -26 -3 -8 8 -24 -2 -61 -41 -28 -29
-50 -55 -50 -58 0 -13 -31 -35 -41 -28 -7 4 -10 1 -7 -7 3 -8 16 -13 32 -11
28 3 36 -12 11 -22 -8 -3 -15 -10 -15 -16 0 -6 5 -8 10 -5 16 10 11 -18 -10
-57 l-20 -37 29 5 c29 6 29 6 38 -57 6 -47 13 -63 23 -61 10 3 9 -3 -4 -17
-11 -12 -16 -24 -13 -28 4 -3 7 -2 7 3 0 6 16 10 35 10 27 0 35 -4 35 -18 0
-10 -4 -18 -10 -18 -5 0 -10 -4 -10 -10 0 -5 7 -10 15 -10 8 0 12 -6 9 -14 -3
-7 2 -20 10 -29 9 -9 16 -21 16 -28 0 -27 18 7 24 44 3 20 10 45 15 55 5 9 12
24 14 33 3 9 16 18 29 21 20 4 23 0 23 -26 0 -25 4 -30 18 -28 15 3 17 -1 12
-18 -8 -26 28 -70 58 -70 13 0 17 -5 14 -15 -4 -8 -2 -17 4 -21 19 -12 31 -57
17 -66 -10 -6 -8 -8 5 -8 14 0 16 -4 8 -19 -6 -10 -7 -21 -4 -25 4 -4 9 -18
10 -32 6 -45 43 -69 110 -73 6 -1 9 -10 6 -21 -3 -12 0 -20 6 -20 7 0 9 -4 6
-10 -11 -17 11 -11 35 10 27 23 40 19 16 -5 -9 -9 -16 -20 -16 -25 0 -16 44
-19 71 -4 33 16 49 18 49 4 0 -5 -6 -10 -13 -10 -14 0 -47 -31 -47 -43 0 -4 5
-7 10 -7 6 0 10 6 10 14 0 15 56 30 72 20 6 -4 14 0 19 7 6 11 9 10 15 -5 4
-11 2 -21 -7 -26 -19 -12 -7 -20 19 -13 23 6 31 23 10 23 -9 0 -9 3 0 12 8 8
15 8 27 -2 21 -17 46 3 27 22 -16 16 -15 28 3 28 14 0 19 -12 16 -33 -1 -4 11
-5 25 -3 15 3 32 2 38 -2 11 -7 16 -8 36 -11 5 0 8 -7 6 -13 -1 -7 -1 -10 1
-5 3 4 12 7 22 7 9 0 22 5 29 12 9 9 12 8 12 -6 0 -12 5 -16 16 -12 8 3 26 -1
39 -10 15 -10 24 -11 27 -4 2 8 13 6 33 -4 26 -14 27 -21 2 -17 -12 2 -20 -27
-13 -46 6 -15 8 -15 17 -3 7 11 8 7 3 -12 -5 -22 -3 -28 10 -28 9 0 21 -9 28
-20 7 -11 18 -20 25 -20 7 0 18 -9 25 -20 7 -11 18 -20 25 -20 7 0 21 -8 31
-17 26 -25 63 -45 70 -39 3 3 0 6 -6 6 -7 0 -12 10 -12 23 l1 22 18 -22 c11
-13 26 -23 35 -23 8 0 25 -14 38 -30 18 -25 28 -30 57 -28 28 2 38 -2 47 -20
14 -29 38 -46 86 -61 20 -7 42 -18 48 -26 6 -8 17 -12 24 -9 7 3 19 -2 26 -11
7 -8 23 -15 36 -15 17 0 22 -4 18 -15 -4 -8 -1 -15 5 -15 6 0 11 5 11 10 0 11
53 6 100 -10 14 -5 52 -16 85 -25 33 -9 79 -23 103 -30 44 -13 66 -4 35 14
-15 9 -15 10 -2 11 9 0 19 -3 22 -6 4 -4 28 -9 54 -11 27 -2 62 -8 78 -12 53
-16 117 -22 110 -11 -3 5 -15 10 -26 10 -10 0 -19 6 -19 14 0 10 12 13 48 10
36 -3 41 -2 22 5 -14 5 -43 10 -65 11 -22 1 -49 5 -60 10 l-20 9 20 2 c44 4
114 -4 192 -22 65 -16 105 -18 200 -14 110 4 227 19 193 25 -8 1 -19 2 -23 1
-4 -1 -17 4 -28 10 -15 8 -24 7 -35 -2 -13 -11 -70 -8 -108 7 -10 4 -16 1 -16
-8 0 -11 -15 -14 -67 -11 -92 4 -101 6 -119 31 -11 15 -25 22 -47 21 -21 -1
-25 -3 -12 -6 11 -3 24 -9 29 -14 9 -8 -8 -7 -89 7 -16 3 -52 8 -80 12 -42 7
-46 9 -27 16 13 4 40 5 59 1 24 -4 33 -3 28 4 -11 18 20 23 66 10 24 -6 66
-12 93 -13 31 -1 51 -7 54 -15 3 -10 -3 -12 -22 -9 -18 4 -26 1 -26 -8 0 -10
15 -14 58 -13 50 0 54 2 30 11 -32 11 -38 33 -8 25 11 -3 20 -2 20 1 0 12 -52
31 -114 43 -34 7 -68 18 -77 25 -8 8 -23 14 -31 14 -9 0 -19 7 -22 16 -4 12
-1 14 14 9 11 -4 20 -3 20 1 0 8 -32 33 -42 34 -15 0 -8 -58 7 -64 23 -8 18
-23 -9 -28 -44 -9 -67 25 -42 60 7 9 5 16 -4 22 -16 10 -30 -5 -30 -32 0 -10
-4 -18 -10 -18 -5 0 -10 5 -10 10 0 6 -9 10 -20 10 -12 0 -20 7 -21 18 0 10
-6 4 -15 -15 -14 -33 -44 -46 -44 -20 0 8 -7 14 -15 14 -8 0 -15 -5 -15 -11 0
-6 -4 -5 -9 3 -7 11 -15 11 -41 2 -43 -15 -55 -14 -43 2 6 6 13 22 16 35 4 19
1 22 -25 22 -17 0 -48 5 -68 11 -27 8 -47 9 -67 1 -34 -11 -65 1 -57 23 4 8
10 12 15 9 5 -3 9 0 9 6 0 7 -8 9 -20 5 -23 -7 -28 10 -5 19 8 3 15 11 15 17
0 11 -16 9 -54 -7 -12 -5 -17 -4 -13 3 8 12 -42 5 -59 -8 -7 -6 -16 -4 -23 5
-8 10 -9 16 -1 21 5 3 10 15 10 26 0 10 5 19 10 19 14 0 12 -23 -2 -39 -11
-11 -10 -13 2 -9 8 2 19 14 25 26 9 20 45 38 45 23 0 -4 6 -16 14 -27 14 -18
16 -18 46 16 27 30 33 33 50 22 17 -10 24 -8 50 15 16 14 30 32 30 40 0 7 7
13 15 13 8 0 15 -3 15 -7 0 -5 15 -9 33 -9 17 -1 46 -5 62 -8 17 -4 85 -9 153
-11 67 -3 131 -9 141 -15 25 -13 34 -13 26 0 -3 6 -2 10 4 10 5 0 12 -4 15 -9
5 -7 62 -16 165 -25 14 -2 27 -8 29 -14 2 -7 8 -12 14 -12 6 0 8 6 5 14 -8 21
14 36 55 36 32 0 38 -3 38 -21 0 -15 -5 -20 -22 -17 -26 3 -38 -15 -13 -20 8
-2 28 10 44 27 34 36 34 36 56 14 13 -13 21 -14 35 -6 13 9 21 8 33 -5 15 -14
18 -14 35 1 20 18 67 24 57 7 -3 -5 3 -10 14 -10 11 0 23 5 27 11 4 8 31 9 84
5 62 -6 79 -4 89 8 14 17 105 12 130 -8 12 -9 13 -7 9 12 -5 18 -2 22 17 22
13 0 27 -4 30 -10 3 -5 20 -7 37 -3 18 4 29 2 25 -3 -8 -13 36 -13 45 0 4 6 8
-4 8 -21 0 -22 -5 -33 -14 -33 -15 0 -27 -23 -22 -42 1 -7 1 -10 -1 -5 -3 4
-18 7 -34 7 -21 0 -27 -4 -23 -15 4 -8 3 -22 0 -31 -6 -15 -8 -15 -24 -1 -15
13 -32 15 -76 8 -4 0 -5 -8 -2 -17 5 -12 2 -15 -10 -10 -14 5 -15 4 -4 -9 19
-23 5 -29 -25 -9 -25 16 -26 16 -32 -4 -3 -12 -9 -20 -13 -17 -5 3 -15 -2 -24
-11 -9 -8 -21 -12 -27 -9 -5 4 -18 0 -27 -8 -9 -9 -32 -14 -49 -13 -18 1 -33
-1 -33 -4 0 -3 -27 -12 -60 -18 -33 -7 -60 -17 -60 -21 0 -11 -40 -2 -58 12
-7 5 -10 18 -7 28 5 14 2 17 -10 13 -9 -4 -19 -20 -22 -35 -4 -24 -8 -27 -19
-18 -16 13 -18 45 -4 54 22 14 -2 21 -74 23 l-76 2 0 -34 c0 -41 8 -66 22 -66
7 0 8 15 4 39 -7 44 -3 45 71 35 30 -4 31 -7 31 -49 -1 -41 -3 -44 -24 -39
-50 13 -43 -9 9 -27 58 -20 225 -23 238 -5 4 5 19 5 35 0 l29 -8 -32 -4 c-20
-2 -33 -9 -33 -18 0 -16 -17 -19 -22 -4 -4 12 -78 1 -78 -11 0 -5 9 -9 19 -9
11 0 23 -4 26 -10 9 -14 47 -12 88 5 20 8 47 15 59 14 22 -1 22 -1 -2 -9 -14
-4 -38 -11 -54 -15 -41 -9 -23 -19 30 -16 30 1 44 -2 39 -8 -3 -6 -19 -11 -35
-11 -35 0 -60 -9 -60 -22 0 -5 4 -7 9 -4 5 3 28 8 52 10 63 7 101 16 127 29
19 9 25 8 32 -3 8 -12 10 -12 10 3 0 10 6 17 13 16 6 -1 20 1 30 6 24 10 33
-1 17 -20 -7 -8 -8 -15 -3 -15 5 0 16 9 26 20 19 23 43 26 49 8 3 -9 9 -8 22
4 20 20 42 14 49 -13 8 -31 34 -23 34 11 0 25 -4 29 -19 24 -10 -3 -18 -1 -18
5 0 6 9 11 20 11 11 0 29 9 40 20 11 11 24 20 29 20 5 0 32 12 61 27 42 22 53
24 60 13 5 -9 5 -20 -2 -27 -12 -15 8 -46 26 -40 6 3 19 -2 28 -10 17 -15 26
-13 116 30 16 8 28 7 46 -2 28 -15 59 -4 32 11 -25 14 -19 25 20 32 38 8 80
41 63 51 -18 12 2 25 22 15 15 -9 19 -7 19 5 0 8 -7 15 -15 15 -32 0 -13 20
20 22 19 0 41 1 48 2 6 1 20 9 30 19 9 9 23 17 31 17 7 0 16 10 19 21 4 14 11
20 21 16 10 -4 23 5 36 23 14 19 26 27 37 23 12 -5 14 -1 8 15 -5 18 -2 22 13
22 15 0 19 5 15 19 -3 13 2 24 16 33 28 17 26 26 -4 20 -27 -5 -34 15 -13 36
16 16 38 15 38 -2 0 -10 12 -14 38 -13 20 0 54 -2 75 -5 20 -3 40 -2 43 3 12
19 26 8 20 -16 -8 -33 12 -33 24 0 9 23 12 24 32 13 13 -7 31 -19 41 -27 15
-12 20 -12 36 3 16 15 23 15 41 6 22 -12 32 -6 43 23 4 12 35 -2 41 -19 7 -19
-12 -67 -24 -59 -17 10 -11 -7 8 -22 16 -13 15 -14 -5 -10 -19 4 -21 2 -11
-19 8 -18 8 -31 -1 -50 -10 -23 -10 -26 5 -20 12 5 15 2 10 -11 -6 -16 -6 -16
12 0 24 22 32 13 21 -26 -5 -17 -6 -33 -4 -36 7 -7 10 -2 33 69 11 36 37 110
56 165 20 55 36 108 36 118 0 9 4 25 9 35 25 47 51 110 51 125 0 10 7 20 15
23 8 4 15 10 15 15 0 5 11 27 25 49 14 22 25 50 25 64 0 13 7 26 15 30 8 3 15
15 15 26 0 12 6 20 13 18 17 -3 67 46 67 66 0 13 5 16 20 11 14 -4 20 -2 20 9
0 10 7 13 22 11 25 -5 98 -54 98 -66 0 -5 4 -9 9 -9 5 0 7 8 4 19 -5 20 33 38
40 18 2 -8 10 -5 21 6 11 11 30 17 50 15 17 -1 37 2 44 6 7 4 12 1 12 -8 0
-20 29 -21 36 -1 4 8 10 15 15 15 5 0 9 -7 9 -15 0 -8 5 -15 11 -15 5 0 7 -4
4 -10 -3 -6 4 -10 17 -10 13 0 30 -9 38 -20 8 -11 24 -20 35 -19 11 0 14 3 8
6 -8 2 -13 22 -13 45 0 35 2 39 20 33 14 -4 20 -2 18 6 -2 7 14 18 37 24 22 7
40 16 40 21 0 5 11 20 25 34 37 37 62 80 56 96 -3 9 1 13 12 12 36 -3 52 3 52
17 0 8 -7 15 -15 15 -7 0 -19 8 -25 18 -11 16 -11 16 -6 0 3 -10 1 -18 -4 -18
-5 0 -10 17 -12 38 -2 28 -7 37 -20 36 -10 -1 -18 1 -18 5 0 4 -7 8 -15 8 -8
0 -11 -5 -8 -10 4 -6 0 -8 -10 -4 -11 4 -14 2 -11 -7 3 -8 1 -17 -5 -21 -6 -3
-11 1 -11 9 0 8 -9 20 -19 25 -16 9 -18 8 -13 -11 4 -18 2 -20 -21 -14 -19 4
-29 1 -35 -10 -8 -14 -14 -15 -43 -5 -28 9 -34 9 -42 -4 -4 -8 -12 -13 -18
-10 -5 4 -9 2 -9 -4 0 -15 -32 -1 -57 26 -22 23 -24 23 -49 7 -21 -14 -30 -15
-45 -6 -10 7 -28 12 -38 12 -11 0 -23 5 -26 10 -3 6 -14 10 -24 10 -9 0 -27 9
-39 21 -22 20 -134 45 -151 34 -5 -3 -11 2 -15 10 -3 8 -14 15 -24 15 -10 0
-22 4 -28 10 -5 5 -32 12 -59 15 -34 3 -55 12 -70 27 -11 13 -32 24 -48 25
-38 3 -117 44 -117 61 0 10 -7 13 -21 9 -12 -3 -22 0 -26 8 -2 8 -32 22 -65
32 -38 11 -63 24 -65 35 -3 9 -12 19 -21 22 -10 3 -24 9 -32 14 -50 29 -80 45
-116 62 -23 11 -47 27 -54 35 -7 8 -16 13 -20 10 -5 -3 -11 -1 -15 5 -5 9 -55
15 -55 7 0 -18 46 -89 75 -116 41 -38 115 -135 115 -150 0 -6 12 -23 26 -38
15 -15 35 -47 46 -70 10 -23 23 -43 30 -45 6 -2 12 -16 14 -31 1 -15 10 -34
18 -43 9 -8 16 -23 16 -33 0 -10 12 -23 26 -29 14 -7 22 -17 19 -22 -3 -6 -2
-10 4 -10 6 0 13 -11 17 -24 3 -14 13 -27 21 -30 8 -4 13 -13 9 -21 -3 -8 4
-34 14 -59 11 -24 17 -51 14 -59 -3 -9 -1 -24 5 -34 6 -10 11 -13 11 -8 0 6 9
11 20 11 14 0 20 -7 20 -23 0 -13 5 -23 10 -23 6 0 10 -11 10 -25 0 -16 6 -25
15 -25 18 0 20 -21 3 -38 -7 -7 -8 -12 -3 -12 4 0 0 -9 -11 -21 -15 -17 -16
-22 -4 -29 8 -5 19 -6 25 -2 5 3 5 -1 -2 -9 -8 -9 -9 -20 -3 -29 16 -24 11
-33 -14 -28 -18 4 -22 1 -19 -12 4 -16 1 -16 -31 -6 -22 6 -36 17 -36 27 0 25
-11 29 -34 13 -22 -14 -36 -10 -36 8 0 5 5 6 12 2 7 -4 8 -3 4 4 -4 6 -13 9
-21 5 -9 -3 -15 1 -15 10 0 9 -14 17 -39 21 -22 3 -41 10 -43 15 -2 5 -19 4
-41 -4 -23 -8 -39 -9 -43 -3 -7 10 -98 1 -125 -13 -8 -4 -33 -4 -55 2 -21 5
-68 11 -104 14 -41 3 -69 11 -76 20 -6 8 -18 15 -27 15 -9 0 -19 5 -22 10 -4
6 -14 10 -23 9 -16 -2 -92 8 -137 18 -96 22 -162 32 -202 32 -26 -1 -81 2
-120 4 -64 5 -73 3 -73 -11 -1 -15 -2 -15 -11 1 -5 9 -17 17 -26 17 -12 0 -13
-3 -4 -14 9 -11 8 -18 -4 -30 -9 -9 -12 -16 -7 -16 17 0 9 -32 -12 -45 -12 -7
-43 -18 -71 -25 -27 -8 -53 -18 -56 -23 -4 -5 -17 -7 -30 -4 -24 4 -24 5 -2
12 12 4 24 13 27 20 3 8 25 17 51 20 25 4 47 11 50 15 2 4 -18 2 -46 -3 -41
-8 -53 -7 -60 4 -8 12 -12 11 -23 -4 -8 -11 -30 -20 -50 -21 -39 -3 -59 -16
-38 -23 23 -9 12 -21 -26 -28 -21 -3 -51 -18 -66 -32 -15 -14 -30 -22 -34 -18
-4 4 -1 10 6 12 6 3 12 13 12 24 0 22 -27 15 -50 -14 -11 -13 -25 -18 -45 -15
l-30 4 35 17 35 17 -55 -5 c-30 -3 -75 -9 -100 -12 -60 -9 -60 -9 -62 0 -4 11
68 37 100 37 12 0 21 5 20 13 -2 9 17 11 77 9 44 -2 81 -7 83 -11 2 -5 16 5
33 21 16 17 27 33 23 37 -4 3 -9 0 -11 -6 -3 -7 -10 -13 -16 -13 -8 0 -7 4 1
12 7 7 12 16 12 21 0 13 -60 0 -79 -17 -9 -8 -41 -17 -73 -21 -49 -6 -57 -5
-61 11 -3 11 -5 6 -4 -11 2 -25 -2 -30 -25 -32 -15 -1 -36 -7 -47 -12 -27 -15
-64 -14 -55 0 4 7 7 25 6 40 0 20 5 30 19 34 29 9 17 17 -14 10 -18 -5 -23
-12 -20 -26 4 -15 0 -19 -20 -19 -14 0 -29 -5 -33 -11 -5 -9 1 -10 20 -5 35 9
33 -5 -6 -27 -34 -20 -47 -14 -49 23 -2 53 14 106 40 128 l26 23 -40 -7 c-22
-4 -55 -8 -74 -9 -19 -1 -40 -10 -46 -19 -10 -13 -25 -15 -70 -12 -32 2 -61 9
-65 15 -8 13 -60 5 -60 -9 0 -5 16 -14 35 -20 19 -6 35 -15 35 -20 0 -14 110
-24 123 -11 6 6 22 11 35 11 17 0 22 4 19 14 -3 8 1 17 10 20 18 7 19 7 27
-19 4 -15 -3 -29 -29 -54 -20 -18 -39 -31 -42 -27 -4 4 -13 -4 -20 -16 l-13
-23 -6 22 c-8 29 -26 34 -58 18 -18 -10 -35 -11 -58 -4 -43 12 -78 12 -78 -1
0 -5 12 -10 26 -10 14 0 23 -4 19 -9 -3 -5 5 -12 17 -14 22 -4 22 -4 -2 -6
-14 0 -38 6 -54 14 -15 8 -35 15 -42 15 -8 0 -14 5 -14 11 0 6 -9 8 -20 4 -15
-5 -18 -3 -14 8 3 8 1 18 -5 21 -7 5 -7 14 2 29 16 30 26 35 53 32 13 -1 24 2
24 6 0 5 -21 9 -46 9 -38 0 -45 -3 -40 -16 3 -9 0 -25 -8 -36 -9 -12 -12 -34
-9 -57 3 -23 1 -41 -6 -45 -7 -5 -11 1 -11 13 0 12 -7 21 -16 21 -8 0 -12 5
-9 10 3 6 -4 10 -16 10 -18 0 -19 -2 -9 -15 10 -12 10 -15 -1 -15 -8 0 -20 4
-28 9 -12 8 -12 12 -2 25 9 11 10 16 2 16 -6 0 -11 -5 -11 -11 0 -7 -11 -9
-29 -6 -15 3 -33 1 -38 -4 -8 -8 -17 -7 -31 0 -11 6 -35 11 -52 11 -24 0 -31
4 -27 15 4 8 2 17 -3 20 -4 3 -10 0 -12 -7 -4 -10 -10 -10 -31 -1 -15 7 -34
10 -42 7 -8 -4 -15 -1 -15 5 0 15 -40 14 -40 -1 -1 -8 -8 -4 -18 8 -19 23 -56
36 -78 27 -22 -8 -16 -25 6 -18 23 7 45 -4 45 -25 0 -8 9 -19 21 -25 28 -14
58 -45 50 -52 -8 -8 -83 45 -90 63 -4 11 -17 13 -47 10 -23 -3 -51 0 -62 6
-20 10 -20 11 -2 24 10 8 28 14 39 14 17 0 18 2 6 9 -8 6 -17 8 -22 5 -4 -3
-16 1 -27 8 -15 9 -23 10 -32 1 -8 -8 -18 -7 -37 3 -15 8 -33 14 -39 14 -7 0
-13 4 -13 9 0 14 29 22 56 15 20 -5 26 -2 31 15 3 11 10 21 17 21 19 0 39 17
32 28 -4 6 -22 6 -53 0 -66 -13 -108 -17 -263 -23 -74 -3 -146 -8 -160 -10
-14 -3 -48 -8 -75 -13 -28 -4 -56 -11 -63 -16 -7 -4 -19 -2 -28 5 -11 9 -18 8
-32 -5 -20 -18 -52 -22 -52 -6 0 6 -9 6 -22 1 -13 -5 -42 -7 -65 -4 -22 2 -68
-2 -100 -10 -53 -12 -61 -12 -88 5 -17 10 -38 18 -47 18 -10 0 -18 7 -18 15 0
8 -6 14 -12 13 -8 -2 -14 10 -16 30 -3 32 -9 36 -47 32 -16 -2 -17 1 -7 13 7
8 22 12 37 9 28 -5 31 4 10 32 -8 10 -12 23 -8 29 3 6 1 7 -6 3 -6 -4 -9 -11
-7 -15 3 -4 -8 -12 -24 -19 -25 -12 -31 -10 -53 12 -16 16 -32 23 -45 20 -15
-4 -22 1 -30 25 -6 17 -17 31 -25 31 -19 0 -28 25 -15 38 8 8 8 15 -1 26 -9
11 -8 17 4 30 9 9 21 16 26 16 5 0 9 15 9 34 0 28 22 70 50 96 3 3 10 12 15
21 30 48 71 98 81 99 12 0 67 80 55 80 -4 0 -12 -5 -19 -12 -7 -7 -12 -8 -12
-4 0 4 32 38 70 76 50 47 69 72 64 84 -4 10 2 23 17 36 18 14 20 19 9 20 -9 0
-21 -5 -28 -12 -9 -9 -12 -7 -12 9 0 32 -34 34 -76 4z m66 -51 c0 -5 -4 -10
-10 -10 -5 0 -10 5 -10 10 0 6 5 10 10 10 6 0 10 -4 10 -10z m-130 -61 c0 -5
-7 -9 -15 -9 -15 0 -20 12 -9 23 8 8 24 -1 24 -14z m-400 -289 c0 -5 -4 -10
-10 -10 -5 0 -10 5 -10 10 0 6 5 10 10 10 6 0 10 -4 10 -10z m415 -390 c3 -5
-1 -10 -10 -10 -9 0 -13 5 -10 10 3 6 8 10 10 10 2 0 7 -4 10 -10z m860 -130
c-8 -12 -65 -13 -65 -2 0 5 16 9 35 10 21 1 33 -3 30 -8z m24 -46 c-15 -18
-49 -18 -49 0 0 8 10 16 23 18 30 5 40 -1 26 -18z m2059 6 c-11 -17 -10 -22 2
-30 16 -10 13 -16 -10 -22 -19 -4 -21 3 -14 42 4 16 13 30 20 30 12 0 12 -4 2
-20z m-1911 4 c-3 -3 -12 -4 -19 -1 -8 3 -5 6 6 6 11 1 17 -2 13 -5z m43 -4
c0 -5 -4 -10 -10 -10 -5 0 -10 5 -10 10 0 6 5 10 10 10 6 0 10 -4 10 -10z
m-130 -15 c14 -16 10 -18 -14 -9 -9 3 -16 10 -16 15 0 14 16 11 30 -6z m1585
-24 c8 -14 -13 -24 -33 -16 -14 5 -14 7 -2 15 19 12 27 12 35 1z m-1147 -29
c4 -14 -34 -16 -42 -3 -6 10 13 21 28 17 6 -1 12 -8 14 -14z m722 -7 c0 -15
-6 -25 -14 -25 -8 0 -16 -6 -19 -12 -3 -10 -7 -10 -17 -1 -9 9 -8 14 9 22 12
7 21 18 21 26 0 8 5 15 10 15 6 0 10 -11 10 -25z m-640 -37 c0 -12 -8 -10 -35
8 -14 9 -22 20 -19 25 5 9 53 -20 54 -33z m27 26 c-3 -3 -12 -4 -19 -1 -8 3
-5 6 6 6 11 1 17 -2 13 -5z m63 -3 c0 -11 -26 -22 -34 -14 -12 12 -5 23 14 23
11 0 20 -4 20 -9z m1437 -7 c-3 -3 -12 -4 -19 -1 -8 3 -5 6 6 6 11 1 17 -2 13
-5z m-2987 -134 c0 -5 -4 -10 -10 -10 -5 0 -10 5 -10 10 0 6 5 10 10 10 6 0
10 -4 10 -10z m100 -10 c0 -5 -5 -10 -11 -10 -5 0 -7 5 -4 10 3 6 8 10 11 10
2 0 4 -4 4 -10z m790 -11 c0 -5 -4 -9 -10 -9 -5 0 -10 7 -10 16 0 8 5 12 10 9
6 -3 10 -10 10 -16z m3335 -8 c3 -5 -4 -13 -16 -16 -23 -8 -34 -1 -24 14 8 13
32 14 40 2z m-3435 -11 c0 -5 -4 -10 -10 -10 -5 0 -10 5 -10 10 0 6 5 10 10
10 6 0 10 -4 10 -10z m-50 -30 c0 -5 -4 -10 -10 -10 -5 0 -10 5 -10 10 0 6 5
10 10 10 6 0 10 -4 10 -10z m2605 -11 c-4 -5 1 -12 10 -15 9 -4 21 -16 25 -28
9 -21 9 -21 9 2 1 12 -3 22 -9 22 -5 0 -10 5 -10 10 0 22 19 8 36 -27 l19 -38
3 33 c4 36 27 44 37 12 5 -16 10 -18 25 -10 14 8 21 5 34 -15 10 -16 26 -25
41 -25 37 0 31 -30 -11 -59 -19 -13 -39 -33 -45 -43 -5 -10 -19 -18 -29 -18
-11 0 -20 -5 -20 -12 0 -6 -9 -3 -20 7 -15 14 -23 15 -34 6 -11 -9 -15 -7 -21
11 -4 13 -8 25 -10 28 -2 6 -14 35 -31 78 -19 46 -34 41 -22 -8 10 -37 2 -73
-9 -42 -3 6 -12 12 -22 12 -9 0 -23 -6 -30 -12 -7 -7 -11 -8 -10 -3 1 6 -3 23
-9 38 -7 16 -9 33 -6 39 9 14 23 -11 25 -42 0 -14 3 -19 6 -12 2 6 11 12 19
12 8 0 11 6 8 15 -4 8 -11 15 -18 15 -13 0 -39 51 -30 59 3 3 13 -4 21 -16 18
-26 33 -30 33 -8 0 19 31 55 42 49 5 -3 6 -10 3 -15z m-2755 1 c0 -5 -9 -10
-20 -10 -11 0 -20 5 -20 10 0 6 9 10 20 10 11 0 20 -4 20 -10z m3230 0 c0 -5
-7 -7 -15 -4 -8 4 -15 8 -15 10 0 2 7 4 15 4 8 0 15 -4 15 -10z m80 0 c20 -6
21 -8 5 -8 -11 0 -29 3 -40 8 -25 11 1 11 35 0z m-3220 -29 c-11 -21 -30 -29
-30 -12 0 12 31 43 37 37 3 -2 0 -14 -7 -25z m160 4 c0 -13 6 -26 13 -28 6 -3
-1 -6 -18 -6 -21 -1 -26 -4 -16 -10 11 -7 9 -10 -8 -16 -11 -3 -25 -3 -31 0
-16 10 -12 35 6 35 8 0 12 5 9 10 -9 15 -41 12 -55 -5 -7 -8 -21 -15 -31 -15
-21 0 -27 29 -6 32 20 2 31 5 47 11 60 23 90 20 90 -8z m50 18 c-1 -18 -19
-35 -29 -28 -9 5 -9 10 0 21 12 15 29 19 29 7z m2308 -10 c-4 -22 -22 -20 -26
1 -2 10 3 16 13 16 10 0 15 -7 13 -17z m892 7 c0 -5 -4 -10 -10 -10 -5 0 -10
5 -10 10 0 6 5 10 10 10 6 0 10 -4 10 -10z m-3173 -37 c2 -6 -3 -13 -12 -16
-10 -5 -15 0 -15 14 0 21 21 22 27 2z m2643 7 c0 -5 -4 -10 -10 -10 -5 0 -10
5 -10 10 0 6 5 10 10 10 6 0 10 -4 10 -10z m638 -8 c27 -25 6 -30 -23 -6 -24
20 -26 25 -10 22 11 -2 26 -9 33 -16z m-2940 -10 c2 -7 -2 -10 -12 -6 -9 3
-16 11 -16 16 0 13 23 5 28 -10z m2781 3 c6 -3 11 -13 11 -20 0 -12 -6 -12
-35 3 -19 9 -35 20 -35 23 0 8 45 3 59 -6z m211 5 c0 -5 -4 -10 -10 -10 -5 0
-10 5 -10 10 0 6 5 10 10 10 6 0 10 -4 10 -10z m-1355 -10 c3 -5 1 -10 -4 -10
-6 0 -11 5 -11 10 0 6 2 10 4 10 3 0 8 -4 11 -10z m115 -26 c0 -8 3 -14 8 -15
4 0 15 -2 25 -4 9 -2 17 3 17 10 0 10 66 45 83 45 1 0 3 -18 4 -40 1 -32 -2
-39 -12 -30 -13 11 -45 4 -45 -11 0 -5 -12 -9 -26 -9 -28 0 -98 65 -88 82 7
12 34 -10 34 -28z m1100 26 c0 -5 -2 -10 -4 -10 -3 0 -8 5 -11 10 -3 6 -1 10
4 10 6 0 11 -4 11 -10z m-2886 -35 c-4 -8 -10 -12 -15 -9 -11 6 -2 24 11 24 5
0 7 -7 4 -15z m-474 -10 c0 -8 -7 -15 -15 -15 -16 0 -20 12 -8 23 11 12 23 8
23 -8z m-124 -22 c-10 -10 -19 5 -10 18 6 11 8 11 12 0 2 -7 1 -15 -2 -18z
m337 13 c22 -17 22 -46 -1 -46 -10 0 -26 -6 -37 -14 -24 -16 -75 -29 -75 -19
0 3 8 15 18 26 9 11 12 17 5 14 -17 -10 -27 11 -13 28 11 13 35 21 70 23 8 1
23 -5 33 -12z m3277 0 c0 -8 -4 -18 -10 -21 -5 -3 -10 3 -10 14 0 12 5 21 10
21 6 0 10 -6 10 -14z m-3120 -6 c0 -5 -4 -10 -10 -10 -5 0 -10 5 -10 10 0 6 5
10 10 10 6 0 10 -4 10 -10z m1830 -15 c0 -14 -4 -25 -10 -25 -11 0 -14 33 -3
43 11 11 13 8 13 -18z m175 -15 c3 -5 1 -10 -4 -10 -6 0 -11 5 -11 10 0 6 2
10 4 10 3 0 8 -4 11 -10z m-2345 -35 c-7 -9 -15 -13 -17 -11 -7 7 7 26 19 26
6 0 6 -6 -2 -15z m270 -10 c-14 -17 -40 -20 -40 -6 0 8 18 16 44 20 5 0 3 -6
-4 -14z m-70 -15 c0 -5 -4 -10 -10 -10 -5 0 -10 5 -10 10 0 6 5 10 10 10 6 0
10 -4 10 -10z m-70 -20 c0 -5 -5 -10 -11 -10 -5 0 -7 5 -4 10 3 6 8 10 11 10
2 0 4 -4 4 -10z m2650 -4 c0 -8 -7 -16 -15 -20 -10 -4 -15 1 -15 14 0 11 7 20
15 20 8 0 15 -6 15 -14z m-2375 -6 c-3 -5 -11 -10 -16 -10 -6 0 -7 5 -4 10 3
6 11 10 16 10 6 0 7 -4 4 -10z m-175 -84 c0 -3 -4 -8 -10 -11 -5 -3 -10 -1
-10 4 0 6 5 11 10 11 6 0 10 -2 10 -4z m1820 0 c0 -3 -4 -8 -10 -11 -5 -3 -10
-1 -10 4 0 6 5 11 10 11 6 0 10 -2 10 -4z m362 -30 c20 13 -1 -60 -24 -81 -11
-11 -17 -13 -13 -5 5 8 -5 2 -20 -13 -32 -31 -49 -19 -20 13 10 11 15 26 12
34 -3 8 1 20 9 26 10 9 14 9 14 1 0 -6 5 -11 11 -11 5 0 9 8 8 18 -2 25 2 39
8 24 2 -6 10 -9 15 -6z m-502 -29 c9 -3 3 -6 -12 -6 -20 -1 -28 4 -28 15 0 12
4 14 13 7 6 -6 19 -13 27 -16z m-1640 3 c0 -5 -4 -10 -10 -10 -5 0 -10 5 -10
10 0 6 5 10 10 10 6 0 10 -4 10 -10z m620 -19 c0 -6 -5 -13 -10 -16 -15 -9
-43 3 -35 15 8 13 45 13 45 1z m70 -23 c0 -12 -38 -10 -45 2 -12 19 5 30 25
17 11 -6 20 -15 20 -19z m510 -8 c0 -5 -4 -10 -10 -10 -5 0 -10 5 -10 10 0 6
5 10 10 10 6 0 10 -4 10 -10z m60 4 c0 -18 -22 -42 -35 -38 -11 5 -12 11 -4
25 9 17 39 27 39 13z m68 -5 c-2 -6 -8 -10 -13 -10 -5 0 -11 4 -13 10 -2 6 4
11 13 11 9 0 15 -5 13 -11z m-753 -69 c-3 -5 -12 -7 -20 -3 -21 7 -19 13 6 13
11 0 18 -4 14 -10z m45 0 c0 -5 -2 -10 -4 -10 -3 0 -8 5 -11 10 -3 6 -1 10 4
10 6 0 11 -4 11 -10z"/>
<path d="M12955 20620 c-3 -5 -1 -10 4 -10 6 0 11 5 11 10 0 6 -2 10 -4 10 -3
0 -8 -4 -11 -10z"/>
<path d="M10390 20670 c-8 -5 -10 -10 -5 -10 6 0 17 5 25 10 8 5 11 10 5 10
-5 0 -17 -5 -25 -10z"/>
<path d="M7841 21634 c0 -11 3 -14 6 -6 3 7 2 16 -1 19 -3 4 -6 -2 -5 -13z"/>
<path d="M8965 21640 c-3 -5 -1 -10 4 -10 6 0 11 5 11 10 0 6 -2 10 -4 10 -3
0 -8 -4 -11 -10z"/>
<path d="M15080 21566 c0 -9 5 -16 10 -16 6 0 10 4 10 9 0 6 -4 13 -10 16 -5
3 -10 -1 -10 -9z"/>
<path d="M9517 21463 c-4 -3 -7 -20 -7 -38 0 -23 5 -31 19 -32 28 -2 43 20 35
51 -6 25 -32 35 -47 19z"/>
<path d="M10678 21262 c-4 -13 2 -18 24 -19 34 -3 37 10 4 25 -20 9 -25 8 -28
-6z"/>
<path d="M10760 21260 c0 -5 5 -10 10 -10 6 0 10 5 10 10 0 6 -4 10 -10 10 -5
0 -10 -4 -10 -10z"/>
<path d="M11165 21206 c-68 -16 -47 -24 60 -21 129 3 133 4 115 14 -27 15
-124 19 -175 7z"/>
<path d="M11995 21190 c28 -12 37 -12 30 0 -3 6 -16 10 -28 9 -21 0 -21 -1 -2
-9z"/>
<path d="M11700 21170 c0 -5 13 -10 29 -10 17 0 33 5 36 10 4 6 -8 10 -29 10
-20 0 -36 -4 -36 -10z"/>
<path d="M11795 21150 c-13 -6 20 -8 89 -5 60 2 111 7 114 10 9 9 -182 4 -203
-5z"/>
<path d="M10900 21134 c0 -8 5 -12 10 -9 6 4 8 11 5 16 -9 14 -15 11 -15 -7z"/>
<path d="M10930 21140 c0 -5 6 -10 14 -10 8 0 23 -3 33 -6 16 -5 16 -4 -1 10
-22 18 -46 21 -46 6z"/>
<path d="M12038 21143 c7 -3 16 -2 19 1 4 3 -2 6 -13 5 -11 0 -14 -3 -6 -6z"/>
<path d="M11024 21127 c-8 -9 -4 -15 14 -25 34 -17 55 1 26 23 -23 17 -26 17
-40 2z"/>
<path d="M11710 21130 c0 -5 4 -10 9 -10 6 0 13 5 16 10 3 6 -1 10 -9 10 -9 0
-16 -4 -16 -10z"/>
<path d="M12170 21130 c-8 -5 -12 -11 -9 -14 7 -8 49 5 49 15 0 12 -21 11 -40
-1z"/>
<path d="M12261 21124 c0 -11 3 -14 6 -6 3 7 2 16 -1 19 -3 4 -6 -2 -5 -13z"/>
<path d="M12117 21123 c-9 -2 -15 -9 -12 -14 9 -14 22 -11 29 6 3 8 4 14 3 14
-1 -1 -10 -3 -20 -6z"/>
<path d="M14586 21121 c-4 -7 -5 -15 -2 -18 9 -9 19 4 14 18 -4 11 -6 11 -12
0z"/>
<path d="M11670 21085 c0 -8 2 -15 4 -15 2 0 6 7 10 15 3 8 1 15 -4 15 -6 0
-10 -7 -10 -15z"/>
<path d="M11908 21093 c7 -3 16 -2 19 1 4 3 -2 6 -13 5 -11 0 -14 -3 -6 -6z"/>
<path d="M9785 20769 c-4 -6 -3 -15 3 -21 6 -6 11 -4 15 6 7 18 -9 31 -18 15z"/>
<path d="M9740 20750 c0 -5 5 -10 10 -10 6 0 10 5 10 10 0 6 -4 10 -10 10 -5
0 -10 -4 -10 -10z"/>
<path d="M9770 20709 c0 -5 5 -7 10 -4 6 3 10 8 10 11 0 2 -4 4 -10 4 -5 0
-10 -5 -10 -11z"/>
<path d="M9845 20710 c-3 -5 -1 -10 4 -10 6 0 11 5 11 10 0 6 -2 10 -4 10 -3
0 -8 -4 -11 -10z"/>
<path d="M13290 20676 c14 -8 29 -12 33 -9 12 8 -14 23 -38 22 -18 0 -17 -1 5
-13z"/>
<path d="M9860 20655 c-11 -13 -10 -14 4 -9 9 3 16 10 16 15 0 13 -6 11 -20
-6z"/>
<path d="M11238 20653 c6 -2 18 -2 25 0 6 3 1 5 -13 5 -14 0 -19 -2 -12 -5z"/>
<path d="M10892 20618 c2 -6 10 -14 16 -16 7 -2 10 2 6 12 -7 18 -28 22 -22 4z"/>
<path d="M13600 20621 c0 -5 5 -13 10 -16 6 -3 10 -2 10 4 0 5 -4 13 -10 16
-5 3 -10 2 -10 -4z"/>
<path d="M13555 20600 c3 -5 8 -10 11 -10 2 0 4 5 4 10 0 6 -5 10 -11 10 -5 0
-7 -4 -4 -10z"/>
<path d="M10850 20586 c0 -9 5 -16 10 -16 6 0 10 4 10 9 0 6 -4 13 -10 16 -5
3 -10 -1 -10 -9z"/>
<path d="M11165 20540 c3 -5 10 -10 16 -10 5 0 9 5 9 10 0 6 -7 10 -16 10 -8
0 -12 -4 -9 -10z"/>
<path d="M11325 20480 c3 -5 10 -10 16 -10 5 0 9 5 9 10 0 6 -7 10 -16 10 -8
0 -12 -4 -9 -10z"/>
<path d="M11383 20468 c-24 -11 -31 -28 -13 -28 6 0 10 4 10 8 0 15 113 8 118
-7 4 -11 -5 -13 -43 -9 -41 5 -45 4 -33 -8 8 -8 35 -15 60 -16 56 -1 72 -10
73 -40 2 -36 16 -69 26 -62 5 3 6 11 2 17 -8 12 -12 54 -13 121 0 31 -3 36
-13 27 -8 -6 -17 -8 -20 -4 -12 11 -131 12 -154 1z m162 -28 c3 -6 -4 -10 -17
-10 -18 0 -20 2 -8 10 19 12 18 12 25 0z"/>
<path d="M13630 20443 c0 -22 2 -25 10 -13 13 20 13 40 0 40 -5 0 -10 -12 -10
-27z"/>
<path d="M11645 20406 c-11 -8 -18 -16 -15 -19 10 -9 71 6 67 17 -6 17 -30 18
-52 2z"/>
<path d="M13540 20416 c0 -2 7 -7 16 -10 8 -3 12 -2 9 4 -6 10 -25 14 -25 6z"/>
<path d="M11605 20343 c14 -15 75 -34 75 -24 0 5 -11 12 -24 15 -13 3 -32 9
-43 12 -12 5 -15 4 -8 -3z"/>
<path d="M12770 20320 c0 -5 5 -10 10 -10 6 0 10 5 10 10 0 6 -4 10 -10 10 -5
0 -10 -4 -10 -10z"/>
<path d="M12560 20299 c0 -5 5 -7 10 -4 6 3 10 8 10 11 0 2 -4 4 -10 4 -5 0
-10 -5 -10 -11z"/>
<path d="M12485 20280 c-3 -5 -1 -10 4 -10 6 0 11 5 11 10 0 6 -2 10 -4 10 -3
0 -8 -4 -11 -10z"/>
<path d="M11878 20243 c6 -2 18 -2 25 0 6 3 1 5 -13 5 -14 0 -19 -2 -12 -5z"/>
<path d="M11120 20230 c0 -5 5 -10 11 -10 5 0 7 5 4 10 -3 6 -8 10 -11 10 -2
0 -4 -4 -4 -10z"/>
<path d="M11355 20210 c-4 -6 9 -10 32 -9 30 0 34 2 18 9 -27 12 -43 12 -50 0z"/>
<path d="M11915 20210 c-3 -5 -1 -10 4 -10 6 0 11 5 11 10 0 6 -2 10 -4 10 -3
0 -8 -4 -11 -10z"/>
<path d="M8338 20193 c7 -3 16 -2 19 1 4 3 -2 6 -13 5 -11 0 -14 -3 -6 -6z"/>
<path d="M14410 19810 c0 -5 5 -10 10 -10 6 0 10 5 10 10 0 6 -4 10 -10 10 -5
0 -10 -4 -10 -10z"/>
<path d="M13818 25503 c-10 -2 -18 -9 -18 -15 0 -12 49 -2 65 13 9 9 -15 11
-47 2z"/>
<path d="M13968 25503 c7 -3 16 -2 19 1 4 3 -2 6 -13 5 -11 0 -14 -3 -6 -6z"/>
<path d="M13780 25430 c-13 -8 -12 -10 3 -10 9 0 17 5 17 10 0 12 -1 12 -20 0z"/>
<path d="M13330 25399 c0 -5 5 -7 10 -4 6 3 10 8 10 11 0 2 -4 4 -10 4 -5 0
-10 -5 -10 -11z"/>
<path d="M13205 25350 c-19 -8 -19 -9 3 -9 12 -1 22 4 22 9 0 6 -1 10 -2 9 -2
0 -12 -4 -23 -9z"/>
<path d="M13100 25310 c0 -5 4 -10 9 -10 6 0 13 5 16 10 3 6 -1 10 -9 10 -9 0
-16 -4 -16 -10z"/>
<path d="M13005 25270 c-3 -6 1 -7 9 -4 18 7 21 14 7 14 -6 0 -13 -4 -16 -10z"/>
<path d="M14235 25260 c3 -5 16 -10 28 -10 18 0 19 2 7 10 -20 13 -43 13 -35
0z"/>
<path d="M14360 25240 c0 -5 5 -10 10 -10 6 0 10 5 10 10 0 6 -4 10 -10 10 -5
0 -10 -4 -10 -10z"/>
<path d="M12905 25221 c-3 -2 -5 -8 -5 -13 0 -11 67 -10 74 1 6 9 -61 21 -69
12z"/>
<path d="M12968 25133 c-20 -5 -24 -23 -5 -23 17 0 41 17 31 22 -5 2 -17 3
-26 1z"/>
<path d="M9474 25371 c7 -11 96 -34 104 -27 3 3 -1 7 -9 10 -8 2 -29 9 -48 15
-41 13 -54 14 -47 2z"/>
<path d="M8950 25350 c19 -13 30 -13 30 0 0 6 -10 10 -22 10 -19 0 -20 -2 -8
-10z"/>
<path d="M9730 25346 c0 -2 7 -9 15 -16 9 -7 15 -8 15 -2 0 5 -7 12 -15 16 -8
3 -15 4 -15 2z"/>
<path d="M8567 25239 c7 -7 15 -10 18 -7 3 3 -2 9 -12 12 -14 6 -15 5 -6 -5z"/>
<path d="M9995 25180 c3 -5 8 -10 11 -10 2 0 4 5 4 10 0 6 -5 10 -11 10 -5 0
-7 -4 -4 -10z"/>
<path d="M10161 25141 c-10 -6 -9 -10 4 -15 9 -3 13 -10 10 -16 -3 -5 1 -10 9
-10 9 0 16 6 16 14 0 20 -24 36 -39 27z"/>
<path d="M8955 24980 c-3 -5 -1 -10 4 -10 6 0 11 5 11 10 0 6 -2 10 -4 10 -3
0 -8 -4 -11 -10z"/>
<path d="M11975 12890 c-3 -5 1 -10 10 -10 9 0 13 5 10 10 -3 6 -8 10 -10 10
-2 0 -7 -4 -10 -10z"/>
<path d="M12016 12788 c-3 -17 -2 -36 4 -42 7 -7 10 -4 10 10 0 10 3 29 6 42
4 12 2 22 -4 22 -5 0 -12 -14 -16 -32z"/>
<path d="M12495 12750 c3 -5 1 -10 -6 -10 -7 0 -10 -2 -7 -5 8 -9 38 6 32 16
-3 5 -10 9 -15 9 -6 0 -7 -4 -4 -10z"/>
<path d="M12110 12726 c0 -9 7 -12 20 -9 11 3 20 9 20 14 0 5 -9 9 -20 9 -11
0 -20 -6 -20 -14z"/>
<path d="M11990 12670 c0 -11 2 -20 4 -20 2 0 6 9 9 20 3 11 1 20 -4 20 -5 0
-9 -9 -9 -20z"/>
<path d="M12960 12630 c0 -5 7 -10 16 -10 8 0 12 5 9 10 -3 6 -10 10 -16 10
-5 0 -9 -4 -9 -10z"/>
<path d="M12960 12589 c0 -5 5 -7 10 -4 6 3 10 8 10 11 0 2 -4 4 -10 4 -5 0
-10 -5 -10 -11z"/>
<path d="M10170 10781 c0 -5 5 -13 10 -16 6 -3 10 -2 10 4 0 5 -4 13 -10 16
-5 3 -10 2 -10 -4z"/>
</g>
</svg>
